
    <svg
      xmlns="http://www.w3.org/2000/svg"
      overflow="visible"
      viewBox="0 0 418.14 353.304"
    >
      <switch>
        <g>
          <g fillRule="evenodd" clipRule="evenodd">
            <path fill="#CAE0EB" d="M0 0h418.14v353.3H0V0z"></path>
            <path
              stroke="#000"
              strokeMiterlimit="10"
              strokeWidth="0.036"
              d="M245.41 36.9c-1.08 24.552-1.225 47.844-.433 70.848.792 23.04 2.521 44.604 5.185 66.06 3.96 7.704 10.439 13.608 19.439 17.712 9 4.032 22.752 6.624 34.309 6.66 11.448-.036 23.976-2.088 34.271-6.731 10.225-4.752 19.08-11.881 26.856-21.528l.432-30.24c4.608 4.428 9.324 5.58 14.688 3.456 5.256-2.232 12.491-6.624 16.848-16.38 4.32-10.044 7.848-29.34 8.64-42.336.612-12.996-1.943-27.072-4.752-34.992-3.023-8.028-7.668-10.116-12.527-12.528-4.86-2.484-10.332-3.204-16.416-2.16.036-3.132-2.269-6.264-6.912-9.936-4.824-3.744-12.528-8.928-21.168-11.664-8.784-2.664-20.017-3.924-30.636-4.32-10.801-.576-23.221-.612-32.832 1.296-9.721 1.872-18.252 5.364-24.192 9.936-5.94 4.496-9.39 9.968-10.8 16.844zm125.25 20.304c1.584-1.944 3.456-3.384 5.615-4.32 2.16-1.008 5.4-3.06 7.345-1.296 1.872 1.584 2.987 5.004 3.888 11.664.756 6.66 1.836 20.556.864 28.512-1.188 7.848-5.076 14.04-7.344 18.576-2.341 4.392-4.177 6.804-6.48 8.208-2.412 1.332-5.004 1.332-7.776 0-.684-6.588-.684-14.796 0-25.056.61-10.334 1.91-22.286 3.89-36.29z"
            ></path>
            <path
              fill="silver"
              stroke="#000"
              strokeMiterlimit="10"
              strokeWidth="0.036"
              d="M246.71 41.652c2.196 4.428 5.652 8.46 10.368 12.096 4.752 3.636 9.18 7.128 17.712 9.504 8.388 2.196 21.312 3.636 32.399 3.888 11.017.144 22.608.612 33.229-3.024 10.476-3.852 20.088-10.188 29.376-19.44-1.836 6.336-3.276 16.236-4.32 30.24-1.08 14.004-1.62 37.872-2.16 53.136-.647 15.156-1.367 27.288-1.872 37.08-5.831 7.812-13.355 13.932-23.256 18.36-9.899 4.464-24.228 7.812-35.496 7.956-11.304-.072-23.327-3.889-31.788-8.137-8.567-4.428-14.76-10.152-19.008-17.712-2.052-10.584-3.492-25.848-4.319-46.62-.9-20.952-1.19-46.224-.86-77.328zM372.38 37.332c2.484-.828 5.364-.828 8.641 0 3.312.684 7.38 1.152 10.8 4.752 3.275 3.528 6.804 8.496 8.64 16.848 1.692 8.316 3.06 20.88 1.728 32.832-1.548 11.772-5.651 29.988-10.367 37.98-4.788 7.848-13.896 8.748-18.145 9.504-4.355.684-6.948-1.044-7.775-5.184l.432-11.196c5.256.972 9.54-.18 13.392-3.456 3.744-3.456 6.948-9.072 9.072-16.416 2.016-7.38 3.024-18.54 3.024-27.216-.145-8.784-1.62-19.908-3.456-24.624-1.908-4.788-5.004-4.14-7.776-3.888-2.988.108-5.976 1.692-9.504 4.752.072-3.348.216-6.228.432-8.64.24-2.468.52-4.484.88-6.032z"
            ></path>
            <path
              fill="silver"
              stroke="#000"
              strokeMiterlimit="10"
              strokeWidth="0.036"
              d="M256.64 48.564c-2.268-1.188-4.14-2.772-5.615-4.752-1.549-2.052-2.7-4.5-3.456-7.344 1.764-4.284 5.075-8.316 9.936-12.096 4.752-3.96 10.764-8.532 19.008-10.8 8.28-2.232 20.628-2.628 30.24-2.592 9.396-.108 18.684.612 26.353 2.16 7.596 1.404 13.644 4.212 18.972 6.912 5.147 2.556 9.324 6.084 12.096 9.072 2.664 2.844 4.608 5.58 3.888 8.64-.899 3.096-3.924 6.084-9.071 9.504-2.124-6.876-7.452-12.024-15.984-15.984-8.748-4.032-23.832-7.308-35.388-7.344-11.664 0-24.696 3.096-33.265 7.344-8.54 4.176-14.44 9.756-17.72 17.28z"
            ></path>
            <path
              fill="#A16121"
              stroke="#000"
              strokeMiterlimit="10"
              strokeWidth="0.036"
              d="M259.24 49.86c5.832 4.716 12.852 8.172 21.6 10.368 8.748 2.016 21.6 2.412 30.24 2.592 8.352.144 12.708.828 20.304-1.296 7.668-2.196 15.732-6.084 25.02-11.664-1.764-5.868-5.939-10.62-12.527-14.256-6.804-3.744-18.036-6.66-27.18-7.776-9.217-1.152-19.729-.684-27.217.864-7.56 1.44-12.204 4.176-17.279 7.776-5.14 3.564-9.32 7.884-12.95 13.392z"
            ></path>
            <path d="M210.91 142.3c110.73 0 200.59 43.288 200.59 96.624 0 53.337-89.865 96.624-200.59 96.624-110.73 0-200.59-43.287-200.59-96.624 0-53.33 89.86-96.62 200.59-96.62"></path>
            <path
              fill="#D18836"
              d="M211.27 143.59c109.75 0 198.83 42.658 198.83 95.22s-89.074 95.221-198.83 95.221c-109.75 0-198.83-42.659-198.83-95.221s89.08-95.22 198.83-95.22"
            ></path>
            <path
              fill="#184180"
              d="M211.87 149.08c107.09 0 194 40.626 194 90.684s-86.914 90.685-194 90.685c-107.09 0-194-40.627-194-90.685s86.91-90.68 194-90.68"
            ></path>
            <path
              fill="#1C0A7F"
              d="M212.83 165.56c82.667 0 149.76 31.417 149.76 70.127 0 38.711-67.093 70.128-149.76 70.128S63.07 274.398 63.07 235.687c.002-38.71 67.09-70.13 149.76-70.13"
            ></path>
            <path
              fill="#FFF"
              d="M213.91 171.87c79.548 0 144.11 28.805 144.11 64.296s-64.56 64.296-144.11 64.296-144.11-28.81-144.11-64.3 64.56-64.3 144.11-64.3"
            ></path>
            <path
              fill="#E0DBDC"
              d="M93.708 247.9c-4.752-5.399-4.896-20.844-.432-29.376 4.392-8.64 13.212-15.624 27.036-21.779 13.86-6.337 32.04-13.032 55.368-15.229 23.256-2.231 57.636-2.628 83.269 2.304 25.523 5.004 54.323 17.28 68.903 27.108 14.328 9.612 18.181 21.636 16.992 30.636-1.404 8.964-10.044 22.716-24.408 22.788-14.58-.216-37.296-18.396-61.487-23.292-24.444-4.932-59.688-7.38-82.836-5.832-23.112 1.512-40.68 12.744-54.504 14.94-13.96 2.08-23.032 2.95-27.892-2.27z"
            ></path>
            <path
              fill="#F8F6F7"
              d="M27.432 249.41L54.9 232.96l-20.484-18.252 34.884-12.17-6.12-17.46 37.08-2.521 3.492-15.48 2.16 16.992-32.686 4.03 2.628 14.94-29.664 12.672 14.4 17.496c-14.328 8.063-24.12 13.464-29.664 16.2-5.544 2.66-6.66 2.66-3.492 0zM338.76 174.42l-.432 12.168 37.044 7.848-6.12 20.269 29.231 11.664-24.84 14.939 23.076 16.956-30.924-16.2 21.348-15.443-25.271-11.916 7.38-17.964-36.18-10.656 5.68-11.67zM364.14 275.54l-20.52 2.376-5.185 22.716-35.352.937-13.29 19.07-30.492-10.836-23.51 16.78 20.556-21.096 30.564 8.784 14.544-16.921 31.824.324 10.044-22.824 20.82.69zM180.58 320.15l-12.312-9.828-37.692 6.805-16.28-18.28-35.388 1.044 4.176-20.664-36.072-5.364 41.508 2.017-.864 19.8 32.544.576 12.852 16.92 39.888-4.284 7.64 11.25zM158.26 154.91l34.524 7.524 24.913-11.808 29.304 11.304 27.432-5.94 13.86 14.112 26.567-1.764-27.611 4.32-15.265-12.096-24.119 4.068-28.765-9.144-25.272 9.216c-17.316-4.032-28.692-6.84-34.668-8.424-5.98-1.62-6.23-2.13-.9-1.37z"
            ></path>
            <path
              stroke="#000"
              strokeMiterlimit="10"
              strokeWidth="0.036"
              d="M186.41 228.85c-1.44.324-2.7 1.584-3.78 3.924-1.152 2.269-2.016 5.616-2.736 9.9-2.448.504-4.356.612-6.12.324-1.728-.36-3.096-1.044-4.104-2.196l3.6-8.28-7.452-4.571c-2.34 1.008-4.752 2.376-6.84 4.104-2.124 1.692-4.32 3.636-6.192 5.977-3.204-2.16-5.328-4.32-6.66-6.769-1.332-2.483-1.728-4.968-1.188-7.74l-8.1-.54c-.9.612-2.268.828-4.248.648-2.088-.288-7.416-.468-7.668-1.908-.252-1.476 1.836-3.744 6.264-6.804l-6.624-.864c-3.78.504-5.868-.036-6.264-1.476-.396-1.513.756-4.068 3.744-7.524-.936-.828-1.944-1.979-2.88-3.744-.972-1.728-2.016-3.924-2.988-6.588-4.248-1.476-6.732-3.563-7.308-6.12-.612-2.664.54-5.76 3.6-9.575-.756.359-1.26.035-1.512-.973-.324-1.08-1.332-3.672-.108-5.148 1.224-1.512 3.708-2.7 7.452-3.708-.108-3.708-.684-5.904-1.584-7.128-1.08-1.224-4.536 1.044-4.104.144.468-1.008 2.808-2.772 7.02-5.688-2.268-1.368-3.528-2.52-3.636-3.6-.18-1.224 1.332-2.52 2.736-2.916 1.296-.396 3.06-.18 5.292.648.432-2.736 2.016-4.752 4.608-6.048s6.192-2.016 10.944-1.872c-2.088-3.78-2.664-5.832-1.872-6.3.828-.468 3.024.756 6.732 3.672 1.008-.972 2.952-1.62 5.976-2.088s6.984-.612 12.024-.576l14.184-4.68c9-3.672 17.784-5.94 26.892-6.948 9.108-1.08 18.828.468 27.072 1.044 8.136.468 16.271.864 21.204 2.556 4.823 1.764 7.164 4.356 7.452 7.92.936-.792 4.067.036 9.792 2.34 5.688 2.304 19.836 8.316 23.976 11.52 3.924 3.096 4.068 5.508.036 7.236 1.512.18 3.275 1.548 5.436 3.708 2.124 2.16 4.5 5.328 7.272 9.504 4.716.468 8.82 1.296 12.708 2.628 3.852 1.26 7.092 2.88 10.116 5.004l20.483 5.039-1.764 3.744c4.896 1.261 8.172 2.34 10.368 3.637 2.088 1.224 2.735 2.412 2.088 3.708l-4.608 2.556c-5.147-1.332-8.315-1.764-9.504-1.008-1.224.684-.54 2.412 2.196 5.184.647.756-.252 1.332-2.7 1.872-2.484.504-6.479.828-12.132 1.116.036 2.952.324 5.832 1.152 8.784.792 2.88 1.836 5.688 3.42 8.567l-5.221.864-9.863-12.024c-1.836 2.196-3.673 4.141-5.94 5.977-2.232 1.8-4.752 3.456-7.416 4.968 1.224 1.692 1.08 2.88-.432 3.96-1.584.937-4.536 1.584-8.856 1.944 1.944 1.404.937 2.844-3.168 4.32-4.176 1.367-11.268 2.771-21.563 4.212.359 1.26 1.151 2.699 2.231 4.176 1.08 1.439 2.592 3.06 4.393 4.716-2.521 4.608-4.717 6.444-6.984 5.904-2.232-.685-4.32-3.924-6.264-9.721-1.801.9-3.528 1.44-5.04 1.62-1.549.108-3.024-.036-4.284-.576-1.044 2.593-2.484 4.572-4.32 6.085-1.908 1.476-4.176 2.231-6.948 2.556l-6.119-1.98c1.764-1.188 2.916-2.483 3.743-4.176.685-1.691 1.044-3.6.792-5.868-3.275 1.656-5.939 2.628-8.136 3.061-2.196.359-3.924.18-5.04-.685-4.716 1.044-9.252 2.088-13.607 2.736-4.465.684-10.225 2.196-12.564 1.476-2.448-.863-2.736-2.951-1.404-6.407-2.808-.576-5.868-1.584-9.036-3.42-3.28-1.81-6.56-4.26-10.12-7.32z"
            ></path>
            <path
              fill="#A87410"
              stroke="#000"
              strokeMiterlimit="10"
              strokeWidth="0.036"
              d="M178.63 241.67c-.072-2.412.648-5.292 2.448-8.784 1.692-3.564 5.58-8.892 7.92-12.096 2.196-3.276 4.176-5.616 5.652-7.164-1.512-1.512-2.916-2.376-4.5-2.88-1.584-.54-3.168-.433-4.896.036-3.492 6.336-6.12 11.844-8.424 16.812-2.268 4.896-3.888 9-5.004 12.456.54.972 1.224 1.44 2.448 1.8 1.15.17 2.55.24 4.35-.19z"
            ></path>
            <path
              fill="#E3E777"
              stroke="#000"
              strokeMiterlimit="10"
              strokeWidth="0.036"
              d="M186.77 226.98l1.152-3.312 2.34 2.808 9.936 5.292-.648 3.996c-2.592-1.008-4.932-2.16-7.02-3.6-2.16-1.48-4.03-3.21-5.76-5.19zM201.64 232.45c-.54 1.8-.432 3.168.036 3.96.468.863.792 2.592 2.916.863 1.98-1.979 5.076-5.903 9.288-12.168l-4.14-3.491c-1.369 1.872-2.484 3.491-3.349 4.716-1.008 1.151-1.404 1.548-2.16 2.592-.84 1.05-1.7 2.13-2.6 3.53z"
            ></path>
            <path
              fill="#A87410"
              stroke="#000"
              strokeMiterlimit="10"
              strokeWidth="0.036"
              d="M206.5 239.36c-.108 1.764-.072 3.023.252 3.924.18.684-.036 1.08 1.296 1.188 1.296.072 3.384-.107 6.408-.54 2.916-.576 8.063-1.872 11.412-2.52 3.239-.72 6.048-1.26 8.279-1.62l-.936-4.212c-5.185 1.656-9.937 2.735-14.4 3.384-4.57.62-8.5.8-12.31.4z"
            ></path>
            <path
              fill="#E3E777"
              stroke="#000"
              strokeMiterlimit="10"
              strokeWidth="0.036"
              d="M236.34 236.38c-1.116 2.556-1.152 4.068-.252 4.68.936.504 3.744-.359 5.652-1.224 1.728-.973 3.275-2.16 4.788-3.996l-2.881-3.601c-2.41 1.36-4.86 2.73-7.31 4.14z"
            ></path>
            <path
              fill="#E3E777"
              stroke="#000"
              strokeMiterlimit="10"
              strokeWidth="0.036"
              d="M234.5 220.39c7.2 5.796 11.88 10.332 14.184 13.896 2.232 3.527.108 4.536-.54 7.056-.756 2.484-1.979 4.86-3.815 7.561l5.04.792c3.24-3.889 4.788-7.561 5.04-11.412.18-3.816-.216-7.74-3.96-11.34-4.032-3.816-16.236-9.612-18.973-10.729-2.69-1.05-1.68.21 3.03 4.17zM252.58 248.15c1.584-2.592 2.771-5.111 3.563-7.703.721-2.629 1.116-5.185 1.044-7.813l4.248-.72c.324 2.268-.252 4.823-1.728 7.523-1.47 2.66-3.85 5.61-7.12 8.71zM261.32 240.98c1.008.396 2.016.648 2.88.612.864-.072 1.584-.432 2.304-.936l-2.34-6.841c-.432 2.16-1.044 3.673-1.44 4.969-.5 1.2-.96 1.88-1.4 2.2zM173.48 230.65l-6.3-2.844 13.5-12.204-7.2 15.04z"
            ></path>
            <path
              fill="#A87410"
              stroke="#000"
              strokeMiterlimit="10"
              strokeWidth="0.036"
              d="M151.99 236.2c1.656-1.44 4.896-3.853 9.864-7.633 4.968-3.779 11.34-8.676 19.656-14.832l-5.04-2.052c-3.348 1.116-6.804 2.736-10.512 4.86-3.816 2.124-8.496 5.04-11.556 7.775-3.06 2.557-5.292 5.148-6.696 7.776 1.41 1.36 2.85 2.73 4.29 4.1zM131.54 215.89c-2.196 1.765-3.708 3.024-4.14 4.068-.54.972-.612 1.548 1.044 1.872 1.62.216 5.76.864 8.532-.396 2.664-1.403 4.572-4.752 7.38-7.523 2.736-2.845 5.652-5.904 8.892-9.324-7.22 3.74-14.46 7.52-21.7 11.3zM145.37 222.3c1.512-3.888 4.608-7.596 9.288-11.268 4.68-3.744 10.8-7.309 18.648-10.836l-3.168-4.788c-4.392 2.411-8.46 5.184-12.636 8.46-4.284 3.239-9.072 7.884-12.132 10.872-2.916 2.916-4.932 5.111-5.652 6.731l5.65.84z"
            ></path>
            <path
              fill="#E3E777"
              stroke="#000"
              strokeMiterlimit="10"
              strokeWidth="0.036"
              d="M147.1 222.55l.432 7.704c2.736-2.88 4.644-5.04 6.12-6.624 1.368-1.62 2.124-2.628 2.268-3.024l-1.08-8.783c-2.448 2.699-4.14 4.788-5.472 6.659-1.34 1.83-2.09 3.05-2.27 4.06zM156.74 211l1.152 8.136 5.616-2.268-2.124-8.604-4.65 2.73zM155.41 203.9c-.54-1.009-1.008-2.664-1.404-5.364-.468-2.7-1.512-8.641-1.044-10.477.396-1.943 2.592-2.699 3.672-.611 1.008 2.195 1.836 6.443 2.484 13.319-1.22 1.05-2.45 2.09-3.71 3.13zM211.64 236.95c4.645-4.248 8.46-7.74 11.736-10.765 3.168-2.987 5.688-5.472 7.416-7.308l3.42 3.024c-3.348 4.428-6.479 7.812-9.684 10.548-3.24 2.628-6.301 4.428-9.324 5.399-1.2-.28-2.39-.56-3.58-.89zM234.36 216c.144-.288.936-1.08 2.231-2.376 1.332-1.404 5.04-5.725 5.724-5.473.54.253-1.403 5.364-2.231 7.021-.9 1.548-1.872 2.196-2.916 2.088-.93-.4-1.86-.83-2.8-1.26zM189.25 222.12c1.548-2.232 3.168-4.284 4.716-6.301 1.512-2.123 3.096-3.924 4.608-5.831.216.647 1.044.936 2.484.72 1.404-.252 3.384-.864 6.084-1.98-1.296.54-3.132 2.088-5.652 5.04-2.556 2.916-5.724 6.84-9.504 12.168-.9-1.26-1.8-2.52-2.74-3.82z"
            ></path>
            <path
              fill="#A87410"
              stroke="#000"
              strokeMiterlimit="10"
              strokeWidth="0.036"
              d="M275.8 250.42c-1.404-.828-2.7-2.304-4.176-4.572-1.512-2.268-2.952-4.716-4.464-8.892-1.62-4.356-4.645-15.192-4.645-16.416-.072-1.152 2.88 6.155 4.536 9.288 1.62 2.987 3.061 5.939 5.292 8.712 2.16 2.735 4.572 5.076 7.524 7.416-.54 1.224-.973 2.052-1.692 2.88-.73.78-1.52 1.18-2.38 1.58z"
            ></path>
            <path
              fill="#E3E777"
              stroke="#000"
              strokeMiterlimit="10"
              strokeWidth="0.036"
              d="M273.78 235.51c2.268-.396 4.788-.828 7.703-1.296 2.952-.576 7.021-1.116 9.576-1.476 2.305-.396 3.492 0 4.681-.612 1.188-.684 2.34-2.34 2.628-3.313.144-1.008.18-1.439-1.26-2.844-1.585-1.691-6.625-5.544-7.633-6.12-1.044-.468-.359.504 1.765 3.204 2.34 2.052 3.239 3.601 2.699 4.645-.611.899-2.987.828-6.012 1.332-3.132.468-9.216 1.151-12.275 1.655-3.133.396-5.185.757-6.301.937.217.828.864 1.512 1.548 2.195.78.61 1.61 1.22 2.87 1.69zM300.28 225.9c1.584.036 3.023-.071 4.319-.323 1.296-.288 3.276.252 3.313-1.152-.145-1.512-1.261-3.996-3.744-7.596 1.08 2.016 1.368 3.744.72 5.328-.65 1.54-2.24 2.7-4.61 3.74zM321.08 201.13c1.404 3.924 2.952 7.416 4.932 10.908 1.944 3.456 4.068 6.479 6.517 9.504l3.744-.216c-2.593-3.816-4.213-7.236-5.257-10.404-1.008-3.24-1.224-6.084-.647-8.676-3.08-.35-6.18-.71-9.28-1.11zM309.17 220.57c2.771-1.152 5.147-2.629 7.416-4.572a30.79 30.79 0 005.832-6.948l-1.98-6.084c-1.548 3.132-3.204 5.868-5.508 8.352a31.957 31.957 0 01-7.92 6.156c.72 1 1.44 2.05 2.16 3.09z"
            ></path>
            <path
              fill="#A87410"
              stroke="#000"
              strokeMiterlimit="10"
              strokeWidth="0.036"
              d="M233.03 164.99c4.392 3.636 8.712 6.12 13.248 7.596 4.464 1.404 8.855 1.8 13.464 1.044l-2.053-4.608c-7.344-.828-12.852-1.8-16.668-3.06-3.815-1.368-4.968-4.356-6.228-4.536-1.37-.18-1.91 1.01-1.76 3.57zM232.42 177.52c-1.764 1.98-2.952 4.5-3.168 7.416-.324 2.952.504 7.236 1.368 10.225.863 2.844 1.836 5.184 3.456 7.02l2.016-3.168c-1.692-2.916-2.916-5.4-3.384-7.884-.504-2.448-.396-4.572.18-6.769.468-2.34 2.448-5.724 2.484-6.84-.16-1.16-1.09-1.16-2.96 0z"
            ></path>
            <path
              fill="#E3E777"
              stroke="#000"
              strokeMiterlimit="10"
              strokeWidth="0.036"
              d="M256.72 139.68c1.224-.972 3.024-1.044 4.824-1.044 1.691-.108 2.808 0 5.436.9 2.7.9 9.648 4.032 10.296 4.68.433.504-4.752-.9-7.199-1.152-2.521-.468-4.933-.828-7.524-.648-2.664.216-7.344 2.16-8.208 1.8-1.02-.62 1.07-3.6 2.37-4.54z"
            ></path>
            <path
              fill="#A87410"
              stroke="#000"
              strokeMiterlimit="10"
              strokeWidth="0.036"
              d="M259.78 144.07c-.108-.468 3.527-.828 6.191-.54 2.664.18 6.336 1.152 9.468 1.944 2.988.612 8.137 1.764 8.496 2.34.181.504-3.96 1.584-6.876 1.296-3.023-.36-7.92-2.484-10.8-3.312-2.88-.86-6.52-1.44-6.48-1.73z"
            ></path>
            <path
              fill="#E3E777"
              stroke="#000"
              strokeMiterlimit="10"
              strokeWidth="0.036"
              d="M281.66 150.8c2.52-1.26 4.5-1.548 6.479-1.008 1.765.54 3.889 3.024 4.717 4.248.863 1.08 1.224 1.908.396 2.628-1.044.72-4.968 2.268-5.94 1.728-.972-.648 1.837-4.536.108-5.256-1.908-.684-8.496 1.44-11.16.972-2.88-.684-5.58-4.14-5.184-4.536.396-.432 2.988.144 7.775 1.872l2.8-.64z"
            ></path>
            <path
              fill="#A87410"
              stroke="#000"
              strokeMiterlimit="10"
              strokeWidth="0.036"
              d="M257.58 136.98c.18-1.008-.612-3.42-2.521-4.716-1.943-1.368-4.752-2.196-8.819-2.88-4.32-.756-16.057-1.296-15.769-.936.468.36 14.112 1.404 18.145 3.132 3.815 1.512 3.636 5.256 5.147 6.228 1.58.8 3.45.15 3.81-.82z"
            ></path>
            <path
              fill="#E3E777"
              stroke="#000"
              strokeMiterlimit="10"
              strokeWidth="0.036"
              d="M197.57 130.82c1.872.756 8.244 3.6 9.252 5.76.828 2.088-3.348 6.948-3.924 6.948-.684-.144 1.296-5.22.108-7.164-1.332-2.016-6.408-3.564-7.308-4.5-.87-.97-.11-1.84 1.87-1.05z"
            ></path>
            <path
              fill="#A87410"
              stroke="#000"
              strokeMiterlimit="10"
              strokeWidth="0.036"
              d="M199.3 129.2c.072-.468 2.34-.432 6.12.108 3.708.504 13.824 2.124 16.056 3.204 2.052 1.08-.54 3.06-3.312 3.024-2.845-.252-10.008-3.24-13.14-4.248-3.25-1.07-5.81-1.72-5.73-2.08zM229.18 130.18c1.008.072 1.836.396 3.853 1.26 2.052.828 7.128 2.412 8.136 3.492.792.936-.648 2.88-3.061 2.34-2.556-.828-9.936-4.86-11.447-6.12-1.52-1.15 1.4-1.15 2.52-.97zM211.18 170.75c-3.564 1.98-6.588 4.896-9.216 8.748-2.736 3.815-5.868 11.52-6.336 14.22-.432 2.592 2.952 1.44 3.744 1.692.684.144.756.18.36-.288-.324-2.664.612-5.796 2.808-9.252 2.16-3.637 8.676-9.108 10.224-11.7 1.45-2.52.87-3.71-1.57-3.42zM172.19 161.64c1.332 4.644 1.944 8.388 1.836 11.376-.144 2.952-1.116 5.112-2.772 6.48l-5.328.54c.072-1.332.36-3.456.72-6.229.36-2.844.792-6.336 1.44-10.62 1.36-.51 2.73-1.01 4.1-1.55z"
            ></path>
            <path
              fill="#A87410"
              stroke="#000"
              strokeMiterlimit="10"
              strokeWidth="0.036"
              d="M155.63 169.7c2.016-.792 4.212-1.944 6.444-3.312 2.124-1.512 4.14-3.852 6.876-5.076 2.628-1.296 8.316-1.296 9.576-2.34 1.224-1.152.072-4.104-1.944-3.996-2.196.036-6.624 2.376-10.368 4.392-3.816 1.979-7.74 4.356-12.06 7.272.46 1.02.96 2.03 1.47 3.07z"
            ></path>
            <path
              fill="#E3E777"
              stroke="#000"
              strokeMiterlimit="10"
              strokeWidth="0.036"
              d="M119.16 210.31c.936-1.008 2.988-3.384 6.3-6.84 3.204-3.636 7.668-8.208 13.248-14.292l.864 5.904c-4.464 5.651-8.136 9.972-11.016 12.96-2.988 2.88-4.968 4.428-6.516 4.788-1.57.33-2.58-.47-2.87-2.52zM122.36 203.72c-.792-.756-1.656-1.908-2.448-3.456-.9-1.62-1.764-3.563-2.592-5.976l4.464-1.8c.576 2.844 1.08 4.859 1.8 6.336.684 1.368 1.296 2.052 2.124 2.052-1.1.95-2.22 1.88-3.34 2.85zM126.54 199.84c.828-.756 1.764-2.088 3.348-3.853 1.404-1.836 5.112-5.615 5.436-6.876.144-1.26-1.836-1.943-3.708-.684-1.908 1.26-4.14 3.708-7.128 7.884.68 1.15 1.37 2.34 2.05 3.53zM125.68 212.22l7.128 1.8c.756-.288 1.584-.576 2.484-1.151.828-.504 1.728-1.296 2.7-2.088-2.052-.036-3.708-.181-4.968-.576-1.296-.396-2.196-.973-2.7-1.729-1.55 1.23-3.1 2.49-4.64 3.75zM131.87 206.89c-.036.324.9.828 2.412 1.368s3.816 1.152 6.912 1.836l4.464-2.664c-1.332-1.691-2.628-2.556-3.744-2.735-1.224-.217-1.98 1.728-3.24 1.548-1.332-.288-2.772-1.296-4.464-3.024-.76 1.21-1.55 2.44-2.34 3.66z"
            ></path>
            <path
              fill="#E3E777"
              stroke="#000"
              strokeMiterlimit="10"
              strokeWidth="0.036"
              d="M136.01 202.82c1.116-1.188 2.484-2.845 4.392-4.969 1.836-2.124 4.068-4.716 6.696-7.775l.828 6.552c-3.204 3.096-5.436 5.292-6.984 6.588-1.512 1.152-1.368 1.188-2.088 1.08-.87-.14-1.77-.5-2.85-1.48zM144.14 203.33l7.776-7.597 1.512 6.841-6.912 4.031c-.54-.972-1.044-1.584-1.224-1.836-.324-.288-.072.181-.216.036-.18-.25-.54-.79-.94-1.47zM151.85 194.51c-.648-.864-.864-1.944-.792-3.636 0-1.765.18-3.816 1.368-6.156 1.152-2.34 2.988-4.932 5.652-7.776l-3.204-2.232c-1.728 1.584-3.096 3.312-4.104 5.328-1.116 2.016-1.692 4.392-2.124 6.552-.396 1.944-.648 3.852-.468 5.58a13.29 13.29 0 001.08 4.788c.85-.79 1.71-1.61 2.58-2.44z"
            ></path>
            <path
              fill="#A87410"
              stroke="#000"
              strokeMiterlimit="10"
              strokeWidth="0.036"
              d="M115.74 192.78c2.16-.612 4.176-1.188 5.904-1.729 1.656-.576 2.376-.792 4.5-1.62 2.052-.972 4.716-2.16 7.992-3.852l-.972-3.384c-3.816 1.655-7.524 2.916-11.268 4.176-3.78 1.224-7.452 2.052-11.16 2.88.288 1.368.864 2.412 1.728 2.988.87.57 1.91.75 3.28.53z"
            ></path>
            <path
              fill="#E3E777"
              stroke="#000"
              strokeMiterlimit="10"
              strokeWidth="0.036"
              d="M110.59 188.42c-.396-1.116-.612-2.052-.648-2.808-.036-.828.072-1.368.468-1.765 3.744.036 7.2-.144 10.764-.684 3.492-.504 6.84-1.368 10.188-2.448-4.176 1.729-7.92 3.313-11.376 4.608-3.48 1.23-6.62 2.31-9.39 3.1zM111.49 182.12c.252-1.477 1.404-3.096 3.744-5.005 2.304-2.051 6.3-4.896 9.9-6.587 3.564-1.764 11.088-3.924 11.052-3.276-.252.72-8.532 4.572-12.06 7.272-3.456 2.556-6.408 5.292-8.712 8.208-1.29-.17-2.59-.39-3.92-.61z"
            ></path>
            <path
              fill="#E3E777"
              stroke="#000"
              strokeMiterlimit="10"
              strokeWidth="0.036"
              d="M118.62 182.05c1.512-2.52 3.492-4.608 6.336-6.66 2.772-2.088 9.864-5.688 10.152-5.4.18.324-7.308 4.896-9.144 7.056-1.98 2.052-2.808 3.564-2.484 4.968-1.63 0-3.25 0-4.87.03z"
            ></path>
            <path
              fill="#E3E777"
              stroke="#000"
              strokeMiterlimit="10"
              strokeWidth="0.036"
              d="M125.96 181.04c1.656-.108 3.492-.612 5.652-1.225 2.124-.756 4.824-2.447 7.128-2.844 2.196-.504 4.14-.252 5.976.36l1.98-2.52c-3.132-.972-6.084-.972-8.712-.396-2.772.54-5.436 3.492-7.308 4.14-1.908.576-3.168.324-3.924-.611-.26 1.01-.51 2.05-.8 3.09zM123.26 168.62c-2.448.756-4.716 1.476-6.66 2.304-2.052.756-4.32 1.404-5.148 2.376-.9.864-.396 2.268 0 2.952.36.72.864.936 1.908 1.044.36-.864 1.548-1.836 3.708-3.312 2.16-1.44 5.112-3.168 9.144-5.184-.97-.03-1.94-.1-2.95-.18z"
            ></path>
            <path
              fill="#A87410"
              stroke="#000"
              strokeMiterlimit="10"
              strokeWidth="0.036"
              d="M116.24 160.7c-.144-.432.504-1.224 2.232-2.376 1.692-1.188 7.056-4.824 7.776-4.68.504.144-3.096 3.6-4.284 5.364-1.224 1.656-2.16 3.024-2.808 4.392.036-.9-.18-1.548-.648-1.944-.5-.49-1.26-.75-2.27-.75zM119.95 164.09l1.08 3.96c1.152-.324 2.952-.684 5.256-.936 2.304-.324 8.28-.432 8.64-.864.18-.468-4.716-1.98-7.2-2.196-2.52-.43-5.11-.32-7.78.04z"
            ></path>
            <path
              fill="#E3E777"
              stroke="#000"
              strokeMiterlimit="10"
              strokeWidth="0.036"
              d="M121.43 162.29c.288-.144.9-.756 1.692-1.836.864-1.152 1.728-2.736 3.132-4.896l.144 7.308c-1.65-.18-3.31-.36-4.96-.57zM119.88 155.27c-1.008-.72-1.584-1.224-1.872-1.908-.324-.792-.576-1.584.216-1.944.792-.396 2.124-.216 4.572-.144 2.34.036 5.58 0 9.72.18l-9.216 1.188c-1.12.85-2.27 1.72-3.42 2.62z"
            ></path>
            <path
              fill="#A87410"
              stroke="#000"
              strokeMiterlimit="10"
              strokeWidth="0.036"
              d="M125.78 149.54c-.216.108.108-.144.684-.756.504-.72 1.152-2.16 2.916-2.952 1.62-.864 3.816-1.44 7.56-1.872 3.888-.54 15.264-1.548 15.084-1.224-.54.252-13.464 1.44-17.244 2.736-3.78 1.152-5.472 2.844-5.076 4.68-1.29-.18-2.58-.4-3.92-.62z"
            ></path>
            <path
              fill="#E3E777"
              stroke="#000"
              strokeMiterlimit="10"
              strokeWidth="0.036"
              d="M141.12 142.81c-1.332-1.62-2.196-2.592-2.448-3.456-.396-.864-.684-1.836.54-1.368 1.152.468 3.348 1.764 6.588 4.032-1.55.26-3.1.51-4.68.8z"
            ></path>
            <path
              fill="#A87410"
              stroke="#000"
              strokeMiterlimit="10"
              strokeWidth="0.036"
              d="M142.63 144.79c1.404 1.908 3.024 3.564 4.464 5.112 1.476 1.548 3.888 4.104 4.464 4.068.432-.216-.252-3.456-1.08-5.004-.756-1.584-1.98-3.132-3.528-4.5-1.43.11-2.87.21-4.31.32zM139.97 145.19c4.644 4.14 7.704 7.416 9.468 9.684 1.548 2.268 1.404 3.492.684 4.068-.756.468-4.32-.36-5.004-.828-.756-.612 1.944-.252.756-2.268-1.332-2.052-3.96-5.364-8.28-9.936.78-.21 1.58-.46 2.37-.71z"
            ></path>
            <path
              fill="#E3E777"
              stroke="#000"
              strokeMiterlimit="10"
              strokeWidth="0.036"
              d="M136.08 146.66c-.324-.108-.9-.036-1.584.36a17 17 0 00-2.772 1.872c2.808 1.296 4.572 2.304 5.292 3.024.648.612-1.656.612-1.224 1.116.396.396 2.412.648 3.564 1.728.864 1.116 1.692 4.356 2.484 4.716.792.18 2.772-1.944 2.628-3.312-.252-1.44-2.196-3.348-3.6-4.896-1.44-1.65-2.99-3.09-4.79-4.61zM132.01 153.04l-3.924 1.26-.504 3.492 9.288-2.664-4.87-2.09zM128.38 159.52l4.248-1.8.54 4.32-5.472-.072.68-2.45z"
            ></path>
            <path
              fill="#E3E777"
              stroke="#000"
              strokeMiterlimit="10"
              strokeWidth="0.036"
              d="M133.7 157.9l4.86-1.908 1.8 3.384-6.084 1.98-.58-3.45zM132.59 163.19c.108.504 1.188.288 3.096-.252a100.54 100.54 0 008.46-3.528l4.644 1.08c-1.332.828-3.06 1.584-4.896 2.556-1.872.936-4.14 1.8-6.516 2.88-1.58-.91-3.16-1.81-4.78-2.74zM139.64 166.68c.612 0 1.656.936 3.564 2.808 1.8 1.872 4.176 4.536 7.272 8.28l2.412-2.412c-1.26-3.06-2.808-5.508-4.5-7.2-1.836-1.764-3.672-2.808-5.94-3.132-.92.53-1.86 1.07-2.8 1.65zM139.43 168.62c0 .36-.684 1.116-2.052 2.124-1.512.972-4.752 2.88-6.264 3.924-1.512.972-2.412 1.656-2.7 2.052.972.108 1.98-.072 3.42-.54 1.332-.54 2.484-2.124 4.716-2.52 2.124-.504 4.968-.504 8.388-.144-.54-1.548-1.332-2.664-2.232-3.492-.95-.82-2-1.29-3.29-1.4zM134.17 180.11c0 1.116.288 2.376.864 3.78a27.133 27.133 0 002.412 4.32l2.808-2.521c-.864-1.044-1.584-2.159-2.016-3.348a10.75 10.75 0 01-.864-3.996c-1.04.58-2.12 1.16-3.2 1.77zM139.57 188.35l1.548 5.148 4.464-4.572c-.288-1.332-.216-2.556.36-4.068.504-1.512 1.368-3.06 2.736-4.787-3.02 2.74-6.05 5.51-9.11 8.28zM139.43 178.09c0 1.152.324 2.124.684 3.204.432.972.9 1.908 1.692 2.808l7.056-6.191-1.548-2.196-2.088 2.988c-1.008-.469-1.98-.792-2.916-.828-1.04-.1-1.86-.03-2.87.22zM154.84 184.18c.072-.612.468-.54.9.216.504.648 1.044 1.98 1.908 3.996.576-1.476 1.296-2.916 2.448-4.32 1.08-1.476 2.448-2.844 4.104-4.248l1.224-4.932c-2.916 1.116-5.076 2.521-6.876 4.068s-2.98 3.23-3.7 5.21zM159.44 193.68l-1.188-4.572c.792-.216 1.872-.936 3.096-2.159 1.224-1.332 2.592-3.133 4.248-5.545l5.364-.359c-.216 2.16-.828 4.032-1.692 5.616-1.008 1.512-2.124 2.592-3.78 3.779-1.65 1.15-3.67 2.23-6.05 3.24zM160.6 195.08c-.324.107 1.008-.576 3.996-1.908 3.024-1.44 9.288-4.752 13.788-6.192 4.428-1.512 8.46-2.304 12.492-2.52l-1.008 3.996c-6.66.899-12.24 2.34-17.172 4.176-4.896 1.8-9 4.14-12.168 6.876-.01-1.48.03-2.96.07-4.44z"
            ></path>
            <path
              fill="#E3E777"
              stroke="#000"
              strokeMiterlimit="10"
              strokeWidth="0.036"
              d="M171.4 187.67c1.872-1.224 4.968-2.196 9.432-2.916 4.464-.828 9.9-1.224 16.884-1.584l3.384-4.752c-2.88-.181-6.624 0-11.376.828-4.86.792-10.368 1.943-17.064 3.744-.39 1.55-.82 3.09-1.25 4.68zM173.99 180.4c.864-.576 1.404-2.16 1.476-4.751.108-2.628-1.224-9.792-.936-10.944.252-1.26 1.044 1.188 2.088 3.744.864 2.556 1.908 6.228 3.132 11.304-1.91.21-3.82.43-5.76.65z"
            ></path>
            <path
              fill="#A87410"
              stroke="#000"
              strokeMiterlimit="10"
              strokeWidth="0.036"
              d="M165.06 165.53c-.972.288-2.16 1.044-3.708 2.268a64.402 64.402 0 00-5.472 4.788l3.204 3.096 6.372-3.528c-.1-2.2-.25-4.4-.39-6.63z"
            ></path>
            <path
              fill="#E3E777"
              stroke="#000"
              strokeMiterlimit="10"
              strokeWidth="0.036"
              d="M154.62 170.75c-.432-2.052-1.26-3.564-2.34-4.932-1.188-1.368-2.628-2.376-4.464-3.024l-3.42 1.584c2.232.072 4.212.864 5.796 2.52 1.584 1.62 2.772 3.96 3.708 7.164.21-1.08.46-2.2.71-3.31zM149.54 162c2.232-.684 3.528-1.656 4.032-2.772.396-1.188 0-2.52-1.332-4.14.972.576 1.332.36 1.368-.504-.036-.9-.54-2.592-1.512-4.932 3.024 2.772 4.788 5.076 5.688 6.768.684 1.62.108 1.98-.756 3.312-.9 1.296-2.232 2.628-4.284 4.284-1.05-.65-2.13-1.34-3.21-2.02zM153.47 164.48c.936-.792 1.944-1.764 3.168-2.772 1.224-1.08 2.196-2.016 4.032-3.636 1.764-1.692 3.78-3.96 6.336-6.66l1.764 5.292c-2.844 1.476-5.364 2.916-7.848 4.464s-4.752 3.06-6.948 4.68c-.14-.42-.32-.89-.5-1.36z"
            ></path>
            <path
              fill="#A87410"
              stroke="#000"
              strokeMiterlimit="10"
              strokeWidth="0.036"
              d="M159.55 156.85c-.036-.216 0-1.476.252-3.636.216-2.34 2.088-7.704 1.044-9.684-1.152-2.016-3.708-2.7-7.812-2.052l.828-2.916c2.7-.252 4.968-.324 6.66-.216 1.656.108 2.7-.864 3.528.684.684 1.512 1.044 5.472.936 7.992-.108 2.34-.684 4.428-1.584 6.264-1.27 1.21-2.56 2.39-3.86 3.58z"
            ></path>
            <path
              fill="#E3E777"
              stroke="#000"
              strokeMiterlimit="10"
              strokeWidth="0.036"
              d="M157.75 153.47c.684-1.836 1.116-3.6 1.152-5.292.072-1.764.144-4.428-.9-5.076-1.08-.792-3.096-.576-5.76.648l1.368 3.276c1.908-2.196 3.096-2.808 3.852-1.692.72 1.07.72 3.74.29 8.13z"
            ></path>
            <path
              fill="#E3E777"
              stroke="#000"
              strokeMiterlimit="10"
              strokeWidth="0.036"
              d="M154.15 148.57c.504-1.476.936-1.908 1.44-1.152.432.684.828 2.484 1.188 5.4-.86-1.4-1.73-2.81-2.63-4.25zM151.34 144.36c.684 1.44 1.152 2.484 1.116 3.132-.072.576-.54 1.26-1.116.648-.576-.684-1.332-2.196-2.268-4.536.76.26 1.52.51 2.27.76zM151.96 138.53l-5.58 1.44 1.476 1.8 3.672-.396.43-2.84z"
            ></path>
            <path
              fill="#A87410"
              stroke="#000"
              strokeMiterlimit="10"
              strokeWidth="0.036"
              d="M166.28 137.7c2.124-1.044 4.716-1.98 7.92-3.204 3.06-1.224 8.964-3.816 10.908-3.888 1.8-.18 3.852.936.612 2.808-3.348 1.692-9.828 4.212-19.98 7.56.18-1.08.36-2.16.54-3.28z"
            ></path>
            <path
              fill="#A87410"
              stroke="#000"
              strokeMiterlimit="10"
              strokeWidth="0.036"
              d="M188.1 129.74c1.008 1.404 1.08 2.88.36 4.572-.864 1.692-5.292 4.752-4.932 5.292.396.324 6.192-.9 7.38-2.7 1.044-1.836.9-4.464-.72-8.028-.69.3-1.37.59-2.09.87z"
            ></path>
            <path
              fill="#E3E777"
              stroke="#000"
              strokeMiterlimit="10"
              strokeWidth="0.036"
              d="M184 135.07c-1.872 1.08-4.32 2.196-7.2 3.492-2.952 1.224-6.336 2.484-10.296 3.924l-.072 4.428c1.728-.828 3.816-1.8 6.264-3.06 2.34-1.368 6.336-3.06 8.244-4.536 1.81-1.47 2.96-2.83 3.07-4.24z"
            ></path>
            <path
              fill="#A87410"
              stroke="#000"
              strokeMiterlimit="10"
              strokeWidth="0.036"
              d="M182.16 140.11c-1.908.216-3.24.828-3.6 1.836-.576.972-.324 2.808.9 3.996 1.26.972 4.752.504 6.588 2.34 1.728 1.836 2.808 8.1 3.816 8.64.936.36 1.476-1.692 1.764-6.3-2.196-3.168-4.248-5.148-6.012-6.228-1.908-1.008-4.356.288-4.824 0-.504-.612 1.62-1.944 1.908-2.736.21-.76.03-1.22-.55-1.55z"
            ></path>
            <path
              fill="#A87410"
              stroke="#000"
              strokeMiterlimit="10"
              strokeWidth="0.036"
              d="M185.18 140.47c.324-.072 1.44-.18 3.492-.324 1.944-.288 6.12-1.656 8.496-.612 2.304 1.116 4.032 3.312 5.328 7.02l-2.664 1.224c.576-3.276-.468-5.4-3.276-6.228-2.808-.9-7.236-.54-13.428 1.08.69-.72 1.37-1.44 2.05-2.16z"
            ></path>
            <path
              fill="#E3E777"
              stroke="#000"
              strokeMiterlimit="10"
              strokeWidth="0.036"
              d="M186.7 142.49c2.052-.468 3.816-.648 5.58-.396 1.656.072 3.312.324 4.572 1.728 1.224 1.368 2.088 3.672 2.736 6.768-.936-.468-1.836-1.332-2.556-2.196-.756-1.044-.792-3.06-2.052-3.528-1.44-.54-3.456-.324-6.192.504-.69-.93-1.37-1.9-2.09-2.87z"
            ></path>
            <path
              fill="#A87410"
              stroke="#000"
              strokeMiterlimit="10"
              strokeWidth="0.036"
              d="M214.88 126.4l-1.8 3.348 3.276.54 1.655-3.96-3.14.07zM211.9 134.82c-.468.648-.827 2.232-1.476 4.752-.756 2.484-2.268 8.136-2.16 10.152.108 1.944 1.98 3.456 2.988 1.224.936-2.376 1.908-7.452 2.916-15.372-.76-.25-1.52-.5-2.27-.75zM229.32 172.84l6.731-4.644 4.104 3.312c-.9.9-2.053 1.62-3.456 2.448a41.804 41.804 0 01-5.004 2.16c-.79-1.09-1.58-2.17-2.37-3.28zM240.95 164.59c.323-.072 1.151-.756 2.34-1.764 1.151-1.08 3.096-3.132 4.859-4.644 1.62-1.656 3.349-3.24 5.04-4.896l1.404 2.628c-1.116 1.728-2.376 3.42-3.924 5.076a53.08 53.08 0 01-5.472 4.788c-1.41-.41-2.81-.8-4.25-1.2z"
            ></path>
            <path
              fill="#E3E777"
              stroke="#000"
              strokeMiterlimit="10"
              strokeWidth="0.036"
              d="M234.5 129.46l4.176.936-1.764 1.476-2.92-.84.5-1.58zM232.7 135.72l-4.32 8.1 6.3-6.84-1.98-1.26z"
            ></path>
            <path
              fill="#A87410"
              stroke="#000"
              strokeMiterlimit="10"
              strokeWidth="0.036"
              d="M176.47 143.89c-.936.576-2.232 1.224-3.744 2.088-1.62.828-4.644 2.016-5.472 2.88-.792.828-.072 1.656.648 1.944.576.18 1.548-.216 2.916-1.044l7.308-4.14c-.55-.58-1.09-1.15-1.67-1.73z"
            ></path>
            <path
              fill="#E3E777"
              stroke="#000"
              strokeMiterlimit="10"
              strokeWidth="0.036"
              d="M178.24 147.06l7.56 1.908c.576 1.8 0 2.7-1.728 2.7-1.8 0-4.68-.9-8.784-2.7.97-.61 1.94-1.26 2.95-1.91zM170.53 151.27l1.836 3.6 3.96-1.08-3.42-4.068-2.38 1.55zM176.8 160.63c.252.324.756 1.188 1.512 3.024.684 1.728 1.692 4.14 2.88 7.38l4.104-3.24-5.22-8.532c-.72.792-1.224 1.188-1.8 1.476-.61.22-1.01.18-1.47-.11z"
            ></path>
            <path
              fill="#A87410"
              stroke="#000"
              strokeMiterlimit="10"
              strokeWidth="0.036"
              d="M174.89 150.12l3.096 3.528c.9.072 1.404.468 1.908 1.044a4.61 4.61 0 01.576 2.592l4.788 7.38 1.764-2.484c-1.764-3.924-3.24-6.552-4.572-8.28-1.404-1.62-2.304-1.224-3.528-1.728-1.31-.65-2.6-1.33-4.04-2.05z"
            ></path>
            <path
              fill="#E3E777"
              stroke="#000"
              strokeMiterlimit="10"
              strokeWidth="0.036"
              d="M183.67 153.65l3.348-.936.252 6.876-3.6-5.94zM188.03 156.28c-.036 2.88.468 5.58 1.368 8.1.9 2.484 2.196 4.788 4.032 6.912l3.888-2.34c-1.728-.432-3.24-1.692-4.824-3.78-1.63-2.16-3.07-5.08-4.47-8.89zM187.85 164.09l-1.692 1.836 1.224 2.7-8.352 6.012 1.332 2.232 10.152-8.316-2.66-4.46z"
            ></path>
            <path
              fill="#A87410"
              stroke="#000"
              strokeMiterlimit="10"
              strokeWidth="0.036"
              d="M191.02 159.41c.432-.72.972-1.548 1.332-2.628.504-1.116 1.224-2.052 1.044-3.78-.324-1.764-1.476-4.104-3.168-6.876l4.104-.504c2.196 2.124 3.168 4.644 2.916 7.56s-1.764 6.084-4.392 9.792c-.61-1.19-1.22-2.37-1.83-3.56z"
            ></path>
            <path
              fill="#E3E777"
              stroke="#000"
              strokeMiterlimit="10"
              strokeWidth="0.036"
              d="M193.1 137.27c.432.144.504-.504.216-1.944-.288-1.512-.972-3.708-1.908-6.732l2.808-.612c-.252 1.98-.144 3.384.324 4.356.432.864 1.908.324 2.34 1.152.324.9.144 2.016-.396 3.888-1.11-.05-2.22-.09-3.38-.12zM199.01 134.5l-.684 3.528c.36-.072.9.108 1.476.936.54.72 1.26 1.908 2.016 3.564.36-2.16.324-3.96-.108-5.256-.52-1.33-1.42-2.31-2.71-2.77z"
            ></path>
            <path
              fill="#A87410"
              stroke="#000"
              strokeMiterlimit="10"
              strokeWidth="0.036"
              d="M209.45 136.01c-1.368 4.536-2.196 7.992-2.88 10.908-.612 2.772-.108 4.788-1.008 5.904-1.08 1.008-2.7 1.224-5.148.504l-.216-3.924 3.456-2.448-.288-2.268c.432-.18 1.116-.972 2.196-2.376 1.01-1.47 2.3-3.52 3.89-6.29zM198.68 154.12c.18.288-.108 1.332-1.008 2.988-.936 1.692-2.34 3.996-4.356 7.056l2.34 2.844c2.196-1.548 3.492-3.384 4.032-5.508.48-2.2.19-4.61-1-7.38zM190.62 169.99c.36-.072-.216.432-1.728 1.656-1.548 1.224-4.032 2.88-7.452 5.4l.468 2.016c.324.288 1.476-.144 3.312-1.151 1.872-1.08 4.284-2.88 7.668-5.256-.76-.87-1.51-1.77-2.27-2.67z"
            ></path>
            <path
              fill="#E3E777"
              stroke="#000"
              strokeMiterlimit="10"
              strokeWidth="0.036"
              d="M189.18 177.66c.792-1.044 1.764-1.98 2.916-2.952 1.188-.936 2.52-1.764 3.996-2.772 1.296-1.116 2.52-2.376 3.816-3.78l-1.692-.864c.36-.504.792-1.044 1.296-1.764a59.104 59.104 0 011.764-2.52l3.672 2.376c-.792 1.584-2.196 3.348-4.068 5.292-2.016 1.908-4.356 3.996-7.452 6.264-1.42.21-2.82.46-4.26.71zM213.12 127.01c-1.656-.36-3.313-.576-5.364-.504-2.016 0-4.212.144-6.588.576l10.764 2.052c.4-.69.79-1.41 1.19-2.13zM186.88 190.15c-.54.793-.324 2.809.504 6.192.792 3.313 2.34 7.848 4.5 13.752l2.628 2.376 2.88-3.168c-2.736-3.924-4.572-7.416-5.364-11.016-.9-3.637-.756-6.84.288-10.152-1.81.65-3.61 1.34-5.44 2.02zM164.34 207.32c1.368-1.116 3.348-2.376 5.94-3.637 2.52-1.296 5.652-2.735 9.396-4.176l.288 5.22c-3.78 1.297-6.804 2.412-9.468 3.744-2.628 1.26-4.788 2.448-6.336 3.708.04-1.61.11-3.23.18-4.85zM165.53 212.72c1.944-1.404 3.852-2.556 5.58-3.312 1.656-.792 3.276-1.332 4.716-1.477l-.504 2.448-10.116 4.716c.1-.79.21-1.58.32-2.38zM172.04 194.47l3.024 6.084 4.788-2.124-.828-6.552a39.07 39.07 0 00-4.32 1.368c-1.22.43-2.01.79-2.66 1.22zM177.19 206.39l.324 3.492 3.528 2.592-1.296-6.876-2.55.8z"
            ></path>
            <path
              fill="#A87410"
              stroke="#000"
              strokeMiterlimit="10"
              strokeWidth="0.036"
              d="M180.14 192.06c.108 1.584.36 4.104.756 7.416.36 3.349.864 7.38 1.512 12.492.756-1.368 1.692-2.196 2.952-2.771 1.26-.576 2.664-.757 4.5-.54a58.206 58.206 0 01-2.808-8.028 83.213 83.213 0 01-2.052-9.432c-1.116-.181-1.908-.181-2.772 0-.75.1-1.58.39-2.09.86zM270.65 177.23c4.248 2.159 7.345 4.355 9.433 6.587 2.016 2.232 2.916 4.284 2.7 6.553l-3.349 4.176c-.972-1.008-2.16-2.736-3.96-4.896-1.8-2.195-3.996-5.111-6.588-8.46.58-1.3 1.16-2.63 1.77-3.96z"
            ></path>
            <path
              fill="#A87410"
              stroke="#000"
              strokeMiterlimit="10"
              strokeWidth="0.036"
              d="M264.82 194.65c.864-2.052 1.584-4.355 2.16-6.911.469-2.628.108-5.725 1.152-8.46.972-2.88 4.932-6.805 5.076-8.46.144-1.728-2.88-2.988-4.212-1.44-1.44 1.584-2.952 6.336-4.141 10.512-1.26 3.996-2.34 8.568-3.239 13.716 1.04.32 2.12.68 3.2 1.04zM279.9 214.7c-1.008-.145-2.052-.792-3.132-1.944-1.188-1.296-2.664-2.88-3.456-5.328-.828-2.52-1.403-5.58-1.584-9.468l-3.852.756c-.036 2.304.18 4.464.936 6.624.648 2.088 1.98 4.32 3.168 6.12 1.188 1.656 2.269 3.06 3.673 4.212 1.26 1.08 2.699 2.052 4.176 2.628a87.9 87.9 0 01.06-3.6z"
            ></path>
            <path
              fill="#E3E777"
              stroke="#000"
              strokeMiterlimit="10"
              strokeWidth="0.036"
              d="M251.5 203.98c.396-.432 1.836-.576 4.464-.576 2.556 0 6.228.145 11.016.576l-.036-3.42c-3.132-1.332-5.903-1.8-8.315-1.8-2.484 0-4.608.684-6.372 2.052-.25 1.04-.5 2.09-.75 3.17zM266.94 219.2l4.717 2.483-.108-6.372c-1.08-.684-2.016-1.728-2.664-3.132-.756-1.403-1.26-3.168-1.512-5.292-.15 4.11-.3 8.21-.44 12.31zM259.49 212.11c.792.684 1.764 1.367 2.771 1.764.972.396 1.98.647 3.168.756l.504-9.36-2.628-.432.685 3.563v.001a7.827 7.827 0 00-2.628 1.512c-.78.55-1.36 1.41-1.86 2.2zM274.61 205.34c-.288-.504-.072-.612.791-.468.793.107 2.232.576 4.177 1.404-.648-1.513-1.152-2.916-1.368-4.752a26.3 26.3 0 01-.18-5.904l-2.629-4.32c-1.224 2.772-1.871 5.4-1.943 7.74-.18 2.34.25 4.4 1.15 6.3zM284.62 208.69l-4.104-2.304c.504-.792.612-1.908.612-3.744-.072-1.8-.396-4.104-.972-6.912l3.527-4.104c1.404 1.764 2.34 3.312 2.809 5.184.359 1.656.323 3.385.035 5.328-.41 2.01-.92 4.06-1.92 6.54zM286.45 208.87c-.216.252.252-1.152 1.403-4.212 1.188-3.168 3.024-10.009 5.221-14.148 2.016-4.248 4.284-7.632 6.947-10.692l2.124 3.528c-3.924 5.364-6.876 10.332-9 15.192-2.124 4.752-3.275 9.252-3.6 13.5-1-1.04-2.04-2.09-3.09-3.17zM285.3 189.04c.18-1.116-.504-2.448-2.34-4.393-1.944-2.088-7.74-5.903-8.496-6.983-.756-.972 1.729-.072 4.14 1.151 2.376 1.152 5.796 2.988 10.261 5.652-1.18 1.51-2.37 3.02-3.56 4.57zM268.42 185c-.396.899-.756 2.268-.937 4.248-.287 1.908-.432 4.284-.432 7.271l4.464-.144 1.944-7.021c-1.65-1.44-3.34-2.88-5.03-4.36z"
            ></path>
            <path
              fill="#E3E777"
              stroke="#000"
              strokeMiterlimit="10"
              strokeWidth="0.036"
              d="M264.89 196.13c-1.764-1.152-3.492-1.656-5.184-1.8-1.836-.145-3.456.216-5.256 1.08l-1.296 3.563c1.655-1.62 3.563-2.412 5.867-2.376 2.269-.036 4.788.756 7.704 2.376-.61-.93-1.22-1.87-1.83-2.84zM273.13 173.2c.468-.036 1.368.36 3.24 1.044 1.764.648 4.14 1.728 7.271 3.096l.576-5.22-9.756-2.196c.072.936 0 1.692-.216 2.268-.28.47-.6.93-1.11 1.01zM315.97 200.23c.252-1.044-.647-2.483-2.412-4.319-1.836-1.944-7.884-5.904-8.567-6.876-.792-1.08 1.655-.072 4.14 1.08 2.448 1.044 5.796 2.88 10.332 5.508-1.15 1.52-2.3 3.06-3.49 4.61z"
            ></path>
            <path
              fill="#A87410"
              stroke="#000"
              strokeMiterlimit="10"
              strokeWidth="0.036"
              d="M308.45 188.1c.432.036 1.296.54 3.023 1.513 1.62.936 3.816 2.268 6.732 4.14l1.332-5.04-9.288-3.672c-.036.936-.36 1.728-.576 2.231-.24.47-.78.79-1.21.83z"
            ></path>
            <path
              fill="#E3E777"
              stroke="#000"
              strokeMiterlimit="10"
              strokeWidth="0.036"
              d="M309.74 178.38l2.088-2.772 4.355 5.328-6.44-2.56zM314.78 177.84c1.764 2.376 3.708 4.14 5.976 5.688 2.232 1.476 4.645 2.447 7.38 3.06l1.692-4.212c-1.584.647-3.672.612-6.12-.108-2.55-.79-5.43-2.27-8.93-4.43zM319.36 184.21l-.252 2.484 2.593 1.403-3.024 9.864 2.412.972 3.096-12.779-4.83-1.93zM325.12 187.24c.18-.323.144.469-.396 2.377-.576 1.871-1.368 4.752-2.664 8.783l1.548 1.368c.433-.036 1.188-1.008 1.98-2.916.756-2.052 1.836-4.859 2.952-8.819-1.12-.25-2.27-.51-3.42-.79z"
            ></path>
            <path
              fill="#A87410"
              stroke="#000"
              strokeMiterlimit="10"
              strokeWidth="0.036"
              d="M219.89 147.17c-1.979.216-3.132.828-3.6 1.836-.54.972-.433 2.808.864 3.996 1.224.972 4.823.504 6.624 2.34 1.619 1.836 2.88 8.1 3.779 8.64.973.36 1.44-1.692 1.8-6.3-2.195-3.168-4.248-5.148-6.012-6.228-1.908-1.008-4.355.288-4.824 0-.504-.612 1.62-1.944 1.908-2.736.21-.76.03-1.23-.54-1.55z"
            ></path>
            <path
              fill="#A87410"
              stroke="#000"
              strokeMiterlimit="10"
              strokeWidth="0.036"
              d="M222.91 147.56c.324-.144 1.439-.216 3.492-.36 1.943-.288 6.119-1.656 8.495-.612 2.305 1.116 4.032 3.312 5.328 7.02l-2.699 1.224c.504-3.276-.396-5.4-3.24-6.228-2.809-.9-7.236-.54-13.428 1.08.68-.68 1.37-1.4 2.05-2.12z"
            ></path>
            <path
              fill="#E3E777"
              stroke="#000"
              strokeMiterlimit="10"
              strokeWidth="0.036"
              d="M224.39 149.54c2.052-.468 3.816-.648 5.58-.396 1.8.072 3.204.324 4.608 1.728 1.224 1.368 2.088 3.672 2.735 6.768-1.008-.468-1.872-1.332-2.592-2.196-.792-1.044-.72-3.06-2.016-3.528-1.44-.54-3.456-.324-6.192.504-.69-.92-1.41-1.89-2.13-2.87zM215.93 154.12l7.596 1.908c.576 1.8 0 2.7-1.728 2.7-1.8 0-4.68-.9-8.784-2.7.96-.62 1.94-1.27 2.91-1.91zM208.26 158.33l1.836 3.6 3.96-1.08-3.42-4.068-2.38 1.55zM221.4 160.7l3.349-.936.252 6.876-3.6-5.94zM236.74 141.55l-.721 3.528c.36-.072.9.108 1.477.936.54.72 1.224 1.908 2.052 3.564.36-2.16.324-3.96-.108-5.256-.51-1.33-1.41-2.3-2.7-2.77zM213.88 166.79c.252.288.756 1.296 1.512 3.024.685 1.728 1.692 4.176 2.88 7.344l4.141-3.205-5.256-8.532c-.648.72-1.188 1.152-1.765 1.44-.57.23-1.07.15-1.5-.06zM222.19 186.41c-.54.792-.324 2.808.504 6.191.792 3.313 2.34 7.884 4.5 13.716l2.628 2.376 2.88-3.168c-2.736-3.924-4.572-7.416-5.364-11.016-.9-3.636-.756-6.84.288-10.152-1.8.68-3.6 1.36-5.44 2.05zM208.22 217.73c.612-.036 1.692.9 3.636 2.664 1.836 1.8 4.355 4.428 7.56 8.028l2.34-2.521c-1.439-3.06-2.988-5.399-4.788-7.02-1.836-1.692-3.852-2.664-6.048-2.916-.9.58-1.8 1.16-2.7 1.77z"
            ></path>
            <path
              fill="#A87410"
              stroke="#000"
              strokeMiterlimit="10"
              strokeWidth="0.036"
              d="M206.35 201.96c2.412 5.22 5.148 9.288 8.64 12.6 3.384 3.276 7.235 5.4 11.7 6.769l.144-5.004c-6.3-3.96-10.764-7.164-13.68-10.009-2.988-2.916-2.593-6.048-3.672-6.768-1.18-.72-2.23.03-3.13 2.41z"
            ></path>
            <path
              fill="#E3E777"
              stroke="#000"
              strokeMiterlimit="10"
              strokeWidth="0.036"
              d="M219.02 180.58c1.404 4.644 1.98 8.388 1.872 11.376-.144 2.951-1.115 5.111-2.771 6.479l-5.364.54c.072-1.476.36-3.384.72-6.264.36-2.844.792-6.336 1.44-10.62 1.37-.52 2.74-1.02 4.1-1.52zM198.29 206.06c-.216.252.252-1.151 1.404-4.212 1.188-3.132 3.024-10.08 5.22-14.184 2.016-4.176 4.284-7.74 6.948-10.692l2.124 3.528h-.001c-3.924 5.364-6.875 10.332-9 15.192-2.124 4.752-3.312 9.252-3.564 13.5-1.04-1.05-2.09-2.09-3.13-3.14zM196.09 204.37l3.636-7.309c-1.908.756-3.276.9-4.5.576-1.116-.468-2.088-1.26-2.52-2.808.072 2.124.432 3.744.936 5.256.504 1.404 1.548 2.52 2.016 3.348.39.68.53 1.04.42.93zM192.31 193c-.144-.181-.036-.973.324-2.376.36-1.477.9-3.564 1.764-6.265l2.376.324c-1.008 2.017-1.764 3.853-2.124 5.508-.468 1.692-.576 2.988-.324 4.284-.65-.47-1.33-.97-2.02-1.47zM196.85 176.26c.288.036 1.188-.864 2.844-2.304 1.692-1.548 3.816-3.816 6.912-6.804l2.988 3.132c-2.736 1.548-4.752 2.952-6.048 4.068-1.368 1.044-2.016 1.944-1.944 2.556-1.58-.23-3.17-.45-4.75-.66z"
            ></path>
            <path
              fill="#E3E777"
              stroke="#000"
              strokeMiterlimit="10"
              strokeWidth="0.036"
              d="M213.19 185.69l-2.232 12.708c-.9-.936-1.872-1.296-2.772-1.08-.972.217-1.872.937-2.844 2.305.72-2.628 1.584-5.04 2.988-7.38 1.25-2.3 2.87-4.54 4.85-6.55z"
            ></path>
            <path
              fill="#A87410"
              stroke="#000"
              strokeMiterlimit="10"
              strokeWidth="0.036"
              d="M207.29 209.48c-2.052 1.98-4.104 4.213-6.444 7.093-2.304 2.735-4.752 5.939-7.344 9.611l2.592 2.16c.828-2.124 2.628-4.284 5.256-6.624 2.7-2.376 6.048-4.788 10.584-7.38-1.116-.792-2.052-1.512-2.808-2.304-.8-.83-1.41-1.73-1.84-2.56z"
            ></path>
            <path
              fill="#E3E777"
              stroke="#000"
              strokeMiterlimit="10"
              strokeWidth="0.036"
              d="M207.25 218.95c-1.548.432-3.132 1.439-4.752 3.168-1.692 1.691-3.276 3.852-5.04 6.768l3.204 2.017c1.476-1.656 2.772-3.24 4.176-4.896 1.332-1.764 2.592-3.312 3.924-5.076-.5-.65-1-1.29-1.51-1.98zM204.3 201.53c-.756 1.044-1.224 1.979-1.404 3.239-.18 1.116-.216 2.412.18 3.744l4.176-1.116c-.792-1.872-1.548-3.275-1.98-4.212-.51-.93-.84-1.62-.98-1.65zM215.35 226.01c-1.151 1.26-2.592 2.952-4.176 4.932a255.772 255.772 0 00-5.58 7.093c.792-.252 1.62-.469 2.628-.36.936-.036 1.908.252 3.06.576l-1.008-2.7 6.731-5.688c-.53-1.26-1.07-2.56-1.65-3.85zM222.37 224.46l-3.24-5.185 5.724 3.169-2.48 2.01zM212.18 200.2c.792.323 1.8.323 3.564-.145 1.62-.54 3.78-1.296 6.336-2.664l1.548 3.24c-3.456 1.152-5.939 2.016-7.596 2.736-1.62.684-2.412 1.08-2.232 1.332a3.028 3.028 0 01-1.656-1.765c-.28-.73-.32-1.74.04-2.74zM214.16 206.28l10.151-4.536c.036 1.151.253 2.16.648 3.023.396.792.972 1.548 1.729 2.124a97.58 97.58 0 00-6.66 1.26c-1.404.324-2.088.612-1.908.864-1.29-.88-2.62-1.78-3.96-2.72zM220.46 210.17l7.92 5.399c-.216-.504-.18-.972.396-1.115.504-.288 1.403-.252 2.699-.181a23.65 23.65 0 00-3.563-2.808c-1.368-.864-2.844-1.764-4.572-2.556-.94.39-1.91.83-2.89 1.26zM225.79 208.58l8.172 5.544 2.556-1.8-10.73-3.74zM231.26 208.62c.324.216 1.152-.612 2.484-2.196 1.26-1.728 3.384-4.716 5.256-7.704 1.8-3.132 3.636-6.479 5.652-10.476l4.14 6.228c-2.232 2.736-4.248 5.508-6.192 8.316-1.943 2.735-3.672 5.508-5.327 8.315-1.97-.82-3.99-1.65-6.01-2.48zM222.48 236.41c.648-.072 1.836-1.008 4.104-3.204 2.124-2.196 5.112-5.437 8.82-9.72l3.779 2.951c-.54 1.368-1.296 2.809-2.664 4.177-1.332 1.332-3.06 2.735-5.184 4.067-2.96.57-5.91 1.15-8.86 1.72zM234.04 234.5c2.088-1.116 3.672-2.16 4.752-3.132 1.008-1.008 1.188-2.412 1.512-2.844.252-.576-.576-.576 0 0 .432.468 1.477 1.512 2.988 3.132a84.338 84.338 0 00-6.156 2.592c-1.439.612-2.304 1.116-2.448 1.368-.21-.36-.43-.72-.64-1.12z"
            ></path>
            <path
              fill="#A87410"
              stroke="#000"
              strokeMiterlimit="10"
              strokeWidth="0.036"
              d="M258.77 214.16c.504-.145-.432.288-2.808 1.439-2.448 1.152-6.229 2.772-11.484 5.256l5.688 3.816c1.08-.468 2.735-1.368 5.256-2.844a306.66 306.66 0 009.432-5.868c-1.368-.252-2.556-.684-3.563-.9-1.09-.26-1.88-.69-2.53-.91z"
            ></path>
            <path
              fill="#E3E777"
              stroke="#000"
              strokeMiterlimit="10"
              strokeWidth="0.036"
              d="M260.17 220.57c.972 2.592 1.584 4.571 1.836 6.336.252 1.62 0 2.844-.468 3.672l-4.896.647c.433-1.151.756-2.195.685-3.527 0-1.332-.396-2.736-.9-4.212 1.23-.97 2.49-1.95 3.75-2.92zM255.02 223.81l-3.672 1.44c.721.54 1.368 1.26 1.944 2.304.576 1.008.864 2.196 1.26 3.708.576-.899.9-1.908.973-3.168.08-1.22-.14-2.69-.5-4.28zM205.38 153.97l1.656 3.636c-1.296.108-2.268.54-3.312 1.152-1.008.612-1.872 1.548-2.592 2.664.36-1.296.612-2.52.468-3.672-.18-1.224-.468-2.232-1.152-3.312 1.26.396 2.088.396 3.024.396.78-.11 1.47-.4 1.9-.87zM207.68 158.72l1.404 3.492-2.88 2.088-3.384-1.98c.648-1.044 1.332-1.836 2.196-2.376.76-.64 1.69-1 2.66-1.22zM207.61 165.06l3.168 3.924 2.88-.432c-.756-1.044-1.404-1.944-2.088-2.7-.685-.756-1.332-1.584-1.944-2.088-.65.44-1.33.87-2.02 1.3zM210.82 162.43l4.068-.648 1.296 3.06c-.864.432-1.403.756-1.908.828-.432.072-.827 0-.899-.216-.84-1-1.7-2.01-2.56-3.02zM215.53 172.37l1.979 6.084-2.124 1.907-2.231-3.492c.252-.18.575-.468.972-1.26.39-.79.86-1.87 1.4-3.24z"
            ></path>
            <path
              fill="#A87410"
              stroke="#000"
              strokeMiterlimit="10"
              strokeWidth="0.036"
              d="M213.84 158c.792.252 1.944 1.98 3.853 5.04 1.8 3.024 5.472 9.972 7.128 13.356 1.548 3.276 2.304 5.472 2.268 6.444-.288-.792.072-1.728.684-2.664.576-1.008 1.801-2.088 3.276-3.24-3.564-4.32-6.156-7.632-8.208-10.62-2.052-2.844-3.276-5.22-3.816-6.732-1.72-.51-3.45-1.05-5.18-1.59z"
            ></path>
            <path
              fill="#E3E777"
              stroke="#000"
              strokeMiterlimit="10"
              strokeWidth="0.036"
              d="M222.48 175.25c.036.252.469 1.08 1.152 2.483.648 1.368 1.692 3.313 2.988 5.832l-4.933 1.513c.036-1.152-.18-2.232-.504-3.24-.359-1.008-.972-2.052-1.691-2.988.96-1.18 1.97-2.37 2.98-3.59zM226.55 168.05c.288-.144.864-.468 1.729-.828.792-.432 1.907-1.008 3.203-1.728l3.168 2.016c-.756.792-1.655 1.44-2.699 2.088-1.116.576-2.232 1.116-3.637 1.62a214.7 214.7 0 00-1.76-3.17zM237.31 161.46c-.504.468.324-.396 2.628-2.448 2.232-2.088 5.797-5.364 10.837-9.972l1.115 3.132c-.972 1.296-2.268 2.7-4.428 4.752-2.088 1.944-4.86 4.176-8.172 6.84-.66-.75-1.3-1.51-1.99-2.3zM227.77 153.47c.612-.504 1.152-.648 2.017-.432.647.144 1.8.18 2.628 1.512.828 1.188 1.691 3.168 2.592 5.94-.36-.18-.864.036-1.368.504s-1.151 1.188-1.8 2.304c-.108-2.16-.324-3.996-1.044-5.652-.72-1.62-1.73-3.06-3.03-4.17zM238.72 156.31c.648-.36 1.764-1.656 3.348-3.888 1.549-2.304 3.564-5.544 6.049-9.72l.684 5.94c-.144.648-1.188 1.8-2.988 3.6a157.527 157.527 0 01-7.92 6.984c.25-.96.54-1.94.83-2.91zM215.21 136.4c.252.396.252 1.584.144 3.564-.18 1.872-.504 4.536-.972 7.992l4.932-2.34c-.359-.576-.575-1.764-.504-3.276 0-1.548.181-3.708.54-6.192-1.37.08-2.74.16-4.14.26zM218.27 130.28l.504-3.492 2.412.54.181 3.744-3.09-.79zM220.07 136.62c1.188-.648 2.556-1.116 4.104-1.548 1.548-.468 3.276-.9 5.184-1.152l1.513 1.98-.612 2.052c-1.26-.36-2.628-.324-4.392.108-1.801.396-3.708 1.188-6.013 2.376.07-1.26.15-2.52.22-3.82zM223.27 133.99c.433-.468.469-1.116.505-1.548-.072-.54-.324-1.044-.757-1.512l-.575-3.672 4.104.576c-1.08.36-1.656.9-1.728 1.62-.108.648.647 1.8 1.151 2.484.433.576.828.972 1.332 1.188-1.32.29-2.65.57-4.02.86z"
            ></path>
            <path
              fill="#A87410"
              stroke="#000"
              strokeMiterlimit="10"
              strokeWidth="0.036"
              d="M228.71 139.54c-1.152.072-2.304.288-3.853.648-1.548.252-3.239.684-5.22 1.152l1.044 3.744c.973.432 1.765.756 2.664.684.864-.108 1.548-.324 2.34-.936l3.03-5.28z"
            ></path>
            <path
              fill="#E3E777"
              stroke="#000"
              strokeMiterlimit="10"
              strokeWidth="0.036"
              d="M230.54 145.04l4.752-7.164 3.168.144c-1.08.108-2.124.684-2.736 1.872-.647 1.08-1.26 2.772-1.439 4.932-1.22.08-2.48.15-3.74.22z"
            ></path>
            <path
              fill="#A87410"
              stroke="#000"
              strokeMiterlimit="10"
              strokeWidth="0.036"
              d="M240.05 130.97c1.729.036 3.204.252 4.572.648 1.26.36 2.231.72 3.312 1.62.973.684 2.017 2.088 2.988 3.096.9.972 1.872 2.016 2.772 2.988l-1.225 4.032c-1.368-2.664-2.952-4.932-5.292-6.804-2.304-1.944-5.04-3.348-8.352-4.5.4-.37.8-.73 1.23-1.09z"
            ></path>
            <path
              fill="#A87410"
              stroke="#000"
              strokeMiterlimit="10"
              strokeWidth="0.036"
              d="M238.28 141.01c.54-.828 1.296-1.8 2.124-2.772.792-1.008 1.8-2.016 2.88-3.168l3.888 3.348c-1.548.756-2.844 1.44-3.888 2.34-1.116.864-1.98 1.656-2.592 2.664l-2.41-2.41zM240.95 145.48c.18-.468.863-1.044 2.052-2.124 1.152-1.116 2.771-2.34 5.004-4.068.036 1.08-.54 2.664-1.728 4.608-1.297 1.908-3.024 4.32-5.58 7.092.08-1.84.15-3.68.26-5.51z"
            ></path>
            <path
              fill="#E3E777"
              stroke="#000"
              strokeMiterlimit="10"
              strokeWidth="0.036"
              d="M249.16 140.72c1.188.648 2.088 1.62 2.699 2.772.505 1.188-.827 2.556.721 4.248 1.512 1.584 5.832 3.672 8.531 5.292 2.629 1.476 4.969 2.772 7.164 3.888l-2.735 2.916c-4.212-1.944-7.344-3.564-9.54-5.256-2.304-1.728-2.664-3.42-3.564-4.68-.972-1.26-1.368-1.26-1.872-2.772-.55-1.55-1.02-3.63-1.41-6.41z"
            ></path>
            <path
              fill="#E3E777"
              stroke="#000"
              strokeMiterlimit="10"
              strokeWidth="0.036"
              d="M254.56 147.1c1.404.72 3.528 1.944 6.517 3.816 2.987 1.8 6.695 4.248 11.268 7.2l2.052-2.124c-2.376-1.44-5.04-2.88-7.992-4.752-3.096-1.836-6.3-3.96-10.008-6.228-.62.67-1.23 1.36-1.84 2.08zM260.28 145.44c.72.9 1.907 1.8 3.852 3.132 1.872 1.224 4.356 2.592 7.452 4.248l-2.052-4.572c-1.513-.468-2.916-.864-4.5-1.332-1.55-.47-3.13-1.01-4.75-1.48z"
            ></path>
            <path
              fill="#A87410"
              stroke="#000"
              strokeMiterlimit="10"
              strokeWidth="0.036"
              d="M275.87 156.1c.72-.144 2.052-.36 3.852-.648 1.729-.396 6.012-1.8 6.876-1.296.828.468.108 1.872-2.016 4.212-1.729.504-3.384.612-5.112.72-1.8 0-3.384-.18-5.147-.54.5-.79 1.01-1.62 1.55-2.44z"
            ></path>
            <path
              fill="#E3E777"
              stroke="#000"
              strokeMiterlimit="10"
              strokeWidth="0.036"
              d="M239.18 181.94c1.584.071 3.96.18 7.524.611 3.42.396 7.848.828 13.284 1.584l.936-2.808c-2.808-.181-5.724-.504-9.288-.828-3.527-.324-7.38-.792-11.7-1.26-.24.91-.49 1.81-.75 2.71z"
            ></path>
            <path
              fill="#A87410"
              stroke="#000"
              strokeMiterlimit="10"
              strokeWidth="0.036"
              d="M243.61 177.95c1.008.432 2.628.863 4.859 1.151 2.232.252 5.076.504 8.532.612l-3.852-3.276c-1.549.288-2.988.504-4.608.792-1.65.22-3.2.51-4.93.73zM290.23 169.74c.252.288.757 1.26 1.513 3.06.684 1.728 1.691 4.176 2.88 7.344l4.14-3.204-5.256-8.532c-.647.72-1.188 1.152-1.764 1.44-.57.21-1.08.18-1.51-.11z"
            ></path>
            <path
              fill="#E3E777"
              stroke="#000"
              strokeMiterlimit="10"
              strokeWidth="0.036"
              d="M283.97 168.05l3.168 3.924 2.844-.432a32.465 32.465 0 00-2.052-2.7c-.684-.756-1.332-1.584-1.944-2.088-.65.43-1.34.87-2.02 1.3zM287.17 165.42l4.068-.684 1.296 3.096c-.864.432-1.404.756-1.908.828-.432.072-.828 0-.9-.216-.83-1.01-1.69-2.02-2.56-3.03zM301.75 200.56c-.144.324-.648 1.404-1.656 2.952-1.08 1.512-2.52 3.78-4.464 6.516l4.968 1.62 4.104-9.144c-1.008-.145-1.692-.36-2.196-.648-.5-.37-.75-.8-.75-1.3zM299.66 194.4l-1.477 4.824 1.944 2.124c.396-1.151.756-2.268 1.08-3.204.252-1.008.468-1.979.648-2.771-.71-.32-1.43-.65-2.19-.97zM303.62 195.59l2.844 2.988-1.836 2.808c-.864-.432-1.404-.756-1.764-1.116-.36-.359-.469-.647-.324-.863.36-1.27.72-2.53 1.08-3.82z"
            ></path>
            <path
              fill="#A87410"
              stroke="#000"
              strokeMiterlimit="10"
              strokeWidth="0.036"
              d="M287.71 223.06c.504.036-.504.145-3.168.18-2.664 0-6.876.072-12.636.072l3.636 5.796c1.08 0 3.06-.144 5.939-.432 2.881-.288 6.408-.828 11.017-1.476-1.188-.828-2.052-1.584-2.88-2.269-.86-.76-1.4-1.33-1.91-1.87z"
            ></path>
            <path
              fill="#E3E777"
              stroke="#000"
              strokeMiterlimit="10"
              strokeWidth="0.036"
              d="M273.6 229.03l-3.239-6.229-6.049-2.664c.036.9.576 2.196 1.477 3.889.936 1.691 2.088 3.779 3.888 6.264 1.29-.39 2.59-.83 3.92-1.26zM273.06 216.11l.324 5.185c1.512.612 3.276 1.008 5.688 1.044 2.34.036 5.04-.216 8.243-.756-3.275-.396-6.084-1.044-8.424-1.944-2.41-.98-4.35-2.06-5.83-3.53zM261.18 205.06c-.972.072-2.952-.036-6.084.072-3.204.072-7.416-.036-12.78.072 1.656 1.188 2.412 2.34 2.412 3.456-.035 1.115-.863 2.088-2.483 3.06 4.104-.864 7.704-1.548 11.088-2.196 3.312-.72 6.264-1.26 8.855-1.764-.34-.9-.66-1.8-1.02-2.7zM261.04 209.09l-18.685 4.104c.181.576 0 1.188-.396 1.98-.468.72-1.188 1.62-2.16 2.556l3.636 2.16c2.664-.756 5.328-1.62 7.597-2.736 2.231-1.224 4.464-2.34 6.3-3.888-.181-.396 0-.936.684-1.62.6-.75 1.61-1.51 3.02-2.55zM244.4 203.29c1.907-3.024 3.636-5.94 5.579-9.036a1592.42 1592.42 0 015.509-9.396l3.456.505c-2.809 2.771-4.752 5.58-6.265 8.712-1.512 3.023-2.304 6.228-2.52 9.611-1.9-.1-3.81-.24-5.76-.39zM253.19 184.93c-1.655-.324-4.031-.684-7.128-.936-3.239-.288-6.912-.612-11.556-.828a6.998 6.998 0 00-.864 2.7c-.107.972-.18 2.016.072 3.132 6.336-1.765 10.908-2.7 13.86-2.809 2.88-.18 4.14.576 3.636 2.124.65-1.1 1.29-2.22 1.98-3.37z"
            ></path>
            <path
              fill="#E3E777"
              stroke="#000"
              strokeMiterlimit="10"
              strokeWidth="0.036"
              d="M251.1 190.66c.036-.973-.359-1.765-1.332-2.232-.936-.468-2.447-.756-4.392-.72l3.708 4.428c.64-.48 1.33-.98 2.01-1.48zM241.52 189.18l-4.319 7.272c-1.188-1.836-1.98-3.204-2.376-4.104-.433-1.008-.468-1.368-.108-1.476 2.28-.54 4.55-1.11 6.81-1.69zM235.55 182.09l1.152-6.156c.684-.108 1.332-.468 2.088-1.08.684-.612 1.404-1.512 2.16-2.556 2.052.9 3.815 1.512 5.292 1.98 1.367.36 2.447.54 3.239.54l-8.172 2.016c-1.115-.18-1.979.252-2.447 1.151-.54.864-.685 2.196-.576 4.141-.9 0-1.8 0-2.73-.03zM248.33 165.6c1.476.108 3.204.36 5.184.756 1.908.324 4.141.54 6.408 1.332 2.232.684 4.392 1.728 6.768 3.132-.323-.828 0-1.512.828-2.052.828-.612 2.269-1.08 4.32-1.404-2.736-.18-5.724-.576-8.964-1.584-3.276-1.044-6.769-2.304-10.62-4.176-1.3 1.33-2.6 2.66-3.93 3.99z"
            ></path>
            <path
              fill="#A87410"
              stroke="#000"
              strokeMiterlimit="10"
              strokeWidth="0.036"
              d="M253.73 160.63l2.557-3.708c.72.468 2.483 1.332 5.147 2.448 2.664 1.08 6.229 2.52 10.836 4.32-2.556 1.008-5.363 1.332-8.424.828-3.18-.61-6.46-1.76-10.13-3.89z"
            ></path>
            <path
              fill="#E3E777"
              stroke="#000"
              strokeMiterlimit="10"
              strokeWidth="0.036"
              d="M269.24 165.2c1.764.288 3.456-.144 5.076-.9 1.584-.792 3.096-2.304 4.535-4.14l4.717-.612c-1.692 2.88-3.204 5.004-4.536 6.228-1.368 1.152-1.944 1.332-3.528 1.224-1.73-.07-3.67-.72-6.27-1.8z"
            ></path>
            <path
              fill="#E3E777"
              stroke="#000"
              strokeMiterlimit="10"
              strokeWidth="0.036"
              d="M267.52 160.13l6.084 2.88 3.492-2.268c-1.728-.396-3.24-.684-4.68-1.26-1.477-.468-2.809-1.224-3.996-1.872-.28.83-.57 1.65-.89 2.52zM259.13 168.91l6.479 3.636-1.26 4.896c-.576-.863-1.296-1.835-2.16-3.312-.94-1.48-1.91-3.18-3.06-5.23z"
            ></path>
            <path
              fill="#A87410"
              stroke="#000"
              strokeMiterlimit="10"
              strokeWidth="0.036"
              d="M260.64 174.89l-4.571 1.224 2.808 3.996 5.472-1.836-3.71-3.38z"
            ></path>
            <path
              fill="#E3E777"
              stroke="#000"
              strokeMiterlimit="10"
              strokeWidth="0.036"
              d="M262.4 181.87l-2.16 11.195c-.54-.216-1.368-.107-2.088.036-.757.108-1.801.54-2.736 1.009.18-1.368.612-2.664 1.44-3.889.72-1.332 1.836-2.448 3.203-3.636l2.269-5.976.08 1.27z"
            ></path>
            <path
              fill="#A87410"
              stroke="#000"
              strokeMiterlimit="10"
              strokeWidth="0.036"
              d="M276.23 168.3c.937.036 2.305-.72 3.96-2.124 1.656-1.476 3.744-3.672 6.12-6.588l5.652-1.044-3.888 5.256-3.133 1.116-3.096 4.896c-1.87-.52-3.74-1.03-5.61-1.53zM291.89 162.97l1.404-2.196c1.188.072 2.448.756 3.78 1.908 1.367 1.116 2.664 3.204 4.031 5.004 1.261 1.764 2.232 3.456 3.313 5.364-.937 1.08-2.017 1.296-3.096.252-1.08-1.044-2.017-4.536-3.492-6.192-1.68-1.75-3.48-3.08-5.93-4.13z"
            ></path>
            <path
              fill="#E3E777"
              stroke="#000"
              strokeMiterlimit="10"
              strokeWidth="0.036"
              d="M293.69 166.36c.54.216 1.44 1.692 3.097 4.572 1.62 2.808 3.6 7.021 6.336 12.492l2.735-3.744c-1.8-1.548-3.348-2.988-4.644-4.86-1.368-1.908-2.232-4.608-3.42-6.012-1.3-1.48-2.67-2.2-4.11-2.45zM305.86 172.94c.396.504.433.936.108 1.44-.324.468-1.116.864-2.232 1.332l3.204 3.096 3.528-3.959c-1.52-.61-3.07-1.26-4.61-1.91zM312.41 174.02c.468.18 1.943.756 4.823 1.872 2.809 1.044 6.732 2.556 11.916 4.536-2.628.468-4.896.54-6.659.216-1.765-.396-2.772-1.188-4.284-2.231-1.7-1.12-3.68-2.63-5.8-4.4zM330.52 181.8c.648-.108 2.34.145 5.221.756 2.88.612 6.768 1.512 11.951 2.844l-2.231 3.204c-3.96-1.8-7.057-2.916-9.576-3.348-2.556-.504-4.284-.324-5.328.54 0-1.33 0-2.66-.03-3.99z"
            ></path>
            <path
              fill="#A87410"
              stroke="#000"
              strokeMiterlimit="10"
              strokeWidth="0.036"
              d="M285.66 172.94l4.607-.144 1.513 4.068c-1.368.613-2.664 1.008-3.744 1.044s-2.088-.181-2.88-.648c.14-1.44.32-2.88.5-4.32z"
            ></path>
            <path
              fill="#E3E777"
              stroke="#000"
              strokeMiterlimit="10"
              strokeWidth="0.036"
              d="M280.37 177.48c.216.503 1.332.827 3.348.972 1.908.144 4.752.036 8.388-.181l.828 3.816c-1.512.288-2.808.18-4.176.072-1.368-.216-2.52-.54-3.852-1.261-1.45-.79-2.96-1.98-4.54-3.42z"
            ></path>
            <path
              fill="#A87410"
              stroke="#000"
              strokeMiterlimit="10"
              strokeWidth="0.036"
              d="M291.74 183.38l-5.904 7.632c.54.396.792 1.152 1.152 2.269.323 1.151.359 2.447.504 4.283-.216-.827.252-2.34 1.548-4.535 1.224-2.305 4.284-6.48 5.868-8.641 1.439-2.195 2.52-3.42 3.096-4.067-2.09 1.02-4.18 2.03-6.27 3.07z"
            ></path>
            <path
              fill="#E3E777"
              stroke="#000"
              strokeMiterlimit="10"
              strokeWidth="0.036"
              d="M275.18 206.6a39.545 39.545 0 017.345 2.809c2.231 1.151 3.708 2.447 6.804 4.176 3.204 1.692 7.092 3.636 12.06 5.976.685.864.937 1.836.36 2.628-.468.792-1.764 1.549-3.492 2.269-2.88-2.448-5.76-4.464-8.784-6.48-3.023-1.979-6.084-3.815-9.18-5.363-1.8-.576-2.952-1.297-3.852-2.305-.93-1.05-1.22-2.24-1.26-3.72zM281.45 215.93l6.624 3.384c-3.097-.18-5.148-.288-6.156-.323-1.044-.072-1.044-.072 0 0-.14-1.01-.28-2.02-.46-3.06zM292.64 213.26c.504-1.368 1.332-2.844 2.34-4.716 1.009-1.908 2.341-3.96 3.853-6.3-.396-.324-.864-.756-1.404-1.584-.576-.756-1.224-1.908-1.943-3.168a46.907 46.907 0 00-2.053 5.076c-.611 1.584-1.224 2.663-1.296 4.5-.18 1.77.04 3.78.5 6.19zM296.17 195.88c.36-1.008 1.116-2.232 2.268-4.068 1.188-1.836 2.629-4.067 4.608-6.695l.468 4.932c-2.195.972-3.888 1.979-4.932 3.42-1.044 1.332-1.584 2.916-1.476 4.752-.29-.76-.61-1.55-.94-2.34z"
            ></path>
            <path
              fill="#A87410"
              stroke="#000"
              strokeMiterlimit="10"
              strokeWidth="0.036"
              d="M300.96 193.79c.936-.433 2.088-.145 3.312.72 1.261.792 2.269 1.872 4.141 4.356 1.764 2.556 3.996 5.867 6.696 10.512.791-1.225 1.296-2.304 1.655-3.096.252-.9.324-1.549.216-1.944-.899-3.096-2.231-5.724-4.283-7.884-2.088-2.232-4.608-3.924-7.849-5.221-1.3.82-2.59 1.68-3.89 2.55z"
            ></path>
            <path
              fill="#E3E777"
              stroke="#000"
              strokeMiterlimit="10"
              strokeWidth="0.036"
              d="M304.16 184.46l3.96-5.076 3.636 1.296c-.18 1.404-.972 2.628-2.088 3.816-1.26 1.08-2.844 2.124-5.04 2.988-.14-1.01-.29-2.02-.47-3.03zM312.95 181.26l5.796 2.521-1.225 2.987-5.615-2.556 1.05-2.95zM307.12 200.63c-.685 2.771-1.584 5.508-2.845 8.208-1.26 2.664-2.771 5.256-4.535 7.92l2.556 2.16c0-2.052.144-3.42.828-3.96.576-.576 1.512 1.979 2.808.432 1.225-1.728 2.592-5.22 4.393-10.62-1.05-1.37-2.13-2.74-3.21-4.14zM295.49 210.96l4.968 1.439-2.412 3.456-3.816-2.088 1.26-2.81zM308.63 213.34l2.376-7.452 2.376 4.104c-.108 1.512-.648 2.592-1.908 3.779-1.26 1.044-3.096 1.98-5.508 2.664l2.66-3.09z"
            ></path>
            <path
              fill="#A87410"
              stroke="#000"
              strokeMiterlimit="10"
              strokeWidth="0.036"
              d="M326.16 200.23c2.16.108 3.924.36 5.436.9 1.368.396.864 1.764 3.204 2.016 2.376.217 5.832.108 10.8-.468l-1.979-5.256c-3.42.828-5.977 1.224-7.813.9-1.8-.324-1.908-2.376-3.096-2.7-1.296-.396-2.88-.433-4.608.18-.64 1.48-1.29 2.96-1.94 4.43z"
            ></path>
            <path
              fill="#E3E777"
              stroke="#000"
              strokeMiterlimit="10"
              strokeWidth="0.036"
              d="M328.68 193.57c.72-.576 1.62-.685 2.7-.181 1.008.433 2.196 1.368 3.564 2.809-.864-1.332-1.261-2.664-1.188-4.393-.036-1.728.432-3.636 1.26-5.724-2.304-.72-3.744-.433-4.859.864-1.04 1.26-1.58 3.42-1.47 6.62z"
            ></path>
            <path
              fill="#A87410"
              stroke="#000"
              strokeMiterlimit="10"
              strokeWidth="0.036"
              d="M335.3 186.44c1.908.504 3.96 1.224 6.3 1.764 2.269.504 4.429.899 7.309 1.764 2.844.9 8.64 2.412 9.611 3.564.828.972-.611 1.908-4.464 2.664-1.332-.504-3.491-1.08-6.479-1.729-3.097-.72-6.84-1.439-11.628-2.304-.396-.828-.756-1.548-.792-2.556-.18-.88-.04-2.07.14-3.15z"
            ></path>
            <path
              fill="#E3E777"
              stroke="#000"
              strokeMiterlimit="10"
              strokeWidth="0.036"
              d="M335.56 193.32l9.468 1.908c-3.348 1.332-5.615 1.908-7.235 1.584-1.6-.36-2.39-1.47-2.24-3.49z"
            ></path>
            <path
              stroke="#000"
              strokeMiterlimit="10"
              strokeWidth="0.036"
              d="M123.48 218.41c-17.496-3.78-32.976-5.508-47.412-5.473-14.544-.071-28.584.217-38.376 5.868-9.792 5.796-19.008 21.672-19.584 28.188-.576 6.155 12.636 4.859 16.452 9.432 3.78 4.68-1.404 13.176 6.264 18 7.632 4.536 21.888 7.704 39.168 9.792 17.316 2.124 47.268 4.608 63.468 2.736 16.02-2.124 26.532-6.948 32.112-14.868 9.288 5.976 18.72 7.668 28.584 5.472 9.864-2.376 25.056-10.764 30.168-19.188 4.932-8.568 3.779-22.716-.396-31.356-4.284-8.784-14.076-15.624-24.66-19.979-10.764-4.32-27.18-4.752-38.412-5.473-11.16-.828-19.908-2.088-27.792.792-7.95 2.85-14.43 8.11-19.58 16.06z"
            ></path>
            <path
              fill="#ECEEA2"
              stroke="#000"
              strokeMiterlimit="10"
              strokeWidth="0.036"
              d="M124.13 220.21c-16.668-3.384-31.752-4.932-46.08-5.076-14.4-.144-29.736-.828-39.204 4.464-9.576 5.256-16.884 21.024-17.208 27.036-.252 5.796 12.096 3.816 15.66 8.208 3.42 4.356-2.376 13.32 5.112 18 7.524 4.572 22.644 7.344 39.528 9.432 16.74 2.017 44.352 4.465 60.336 2.341 15.768-2.341 27.036-7.381 34.092-15.66 8.28 5.939 16.884 7.812 26.244 5.903 9.396-2.088 24.228-9.756 29.34-17.747 4.788-8.173 3.96-21.961.035-30.097-4.067-8.172-13.896-14.076-23.507-18-9.684-3.815-23.184-4.355-33.696-5.111-10.476-.937-20.592-2.736-28.98 0-8.52 2.79-15.65 8.04-21.66 16.32z"
            ></path>
            <path
              stroke="#000"
              strokeMiterlimit="10"
              strokeWidth="0.036"
              d="M103.9 233.68c-4.284 1.116-7.632 3.024-10.188 5.868-2.592 2.771-5.364 7.308-5.112 10.979.144 3.564.72 7.236 6.3 10.584 5.58 3.313 17.316 9 27 9 9.684-.252 26.172-4.716 30.564-9.792 4.212-5.184.252-15.588-5.076-20.376-5.508-4.716-14.472-7.271-27.432-7.812l-16.05 1.55z"
            ></path>
            <path
              fill="#F7F619"
              stroke="#000"
              strokeMiterlimit="10"
              strokeWidth="0.036"
              d="M131.69 241.92c-6.264-.18-18.576 1.728-23.868 3.924-5.4 2.052-8.064 5.616-7.848 8.604.216 2.88 3.816 6.947 9 9 5.04 2.052 14.04 3.888 21.168 3.132 7.02-1.008 18.648-5.364 21.132-8.604 2.304-3.42-3.384-8.244-6.66-10.979-3.31-2.73-6.84-4.93-12.92-5.07z"
            ></path>
            <path
              stroke="#000"
              strokeMiterlimit="10"
              strokeWidth="0.036"
              d="M156.92 214.2c-4.68 2.447-5.364 5.004-5.364 8.1 0 2.988 2.16 6.372 5.364 10.008 3.096 3.601 7.02 9.036 13.572 11.16 6.516 1.98 18.936 2.844 25.452.792 6.408-2.196 11.412-8.352 12.924-13.32 1.439-5.111.504-12.491-4.32-16.451-5.148-3.925-17.424-7.057-25.452-7.057-8.16-.03-17.45 4.21-22.17 6.77z"
            ></path>
            <path
              fill="#F7F619"
              stroke="#000"
              strokeMiterlimit="10"
              strokeWidth="0.036"
              d="M193.14 221.15c-5.832-.756-20.988-1.619-25.056.757-3.996 2.376-2.16 9.936 1.188 13.5 3.276 3.563 12.816 7.02 18.468 7.308 5.436 0 12.204-3.672 14.616-6.552 2.34-2.88 1.152-7.92-.36-10.404-1.52-2.61-3.35-4.01-8.86-4.62z"
            ></path>
            <path
              stroke="#000"
              strokeMiterlimit="10"
              strokeWidth="0.036"
              d="M212.11 243.83c-1.477-.181 1.728 6.588-1.656 10.008-3.672 3.384-20.628 9.792-19.188 10.044 1.62 0 24.732-5.832 28.368-9.18 3.32-3.49-5.9-10.73-7.52-10.87zM52.74 254.7c.9-.288.396 5.58 5.004 8.315 4.644 2.664 23.364 7.164 22.536 7.524-1.116.18-23.724-3.204-28.368-5.832-4.608-2.77-.216-9.72.828-10.01zM76.932 225.47c-2.988-.216-15.732-1.512-22.536.828-6.948 2.376-17.604 12.384-18.36 13.355-.756.828 8.136-6.3 14.184-8.352 6.084-2.088 17.028-3.276 21.708-4.14 4.464-.98 7.848-1.59 5.004-1.7z"
            ></path>
            <path
              stroke="#000"
              strokeMiterlimit="10"
              strokeWidth="0.036"
              d="M257.51 278.32c12.024-4.428 27.756-12.239 41.364-17.46 13.464-5.292 30.275-10.044 39.204-13.68 8.748-3.636 11.16-4.68 13.355-8.28 1.98-3.815 1.729-9.863-.468-13.968-2.124-4.14-5.436-9.576-12.276-10.62-6.983-1.08-15.876.612-29.195 3.96-13.608 3.276-37.908 11.269-50.977 15.372-13.067 3.924-19.728 5.292-26.64 8.28-6.984 2.771-11.232 5.328-14.688 9.18-3.6 3.816-5.436 9.252-6.191 13.968-.828 4.717-1.116 10.513 1.62 14.185 2.628 3.672 7.02 7.271 14.544 7.308 7.62-.19 18.24-4.01 30.37-8.25z"
            ></path>
            <path
              fill="#A16121"
              stroke="#000"
              strokeMiterlimit="10"
              strokeWidth="0.036"
              d="M258.77 276.08c11.7-4.464 25.92-11.952 39.061-17.064 13.032-5.147 30.096-9.647 38.844-13.067 8.568-3.42 10.62-4.141 12.816-7.309 2.016-3.312 2.016-8.388 0-12.168-2.089-3.852-5.257-9.252-11.988-10.368-6.876-1.044-15.444.612-28.477 3.853-13.247 3.204-36.936 10.979-49.68 14.976-12.708 3.708-19.224 5.256-25.956 8.101-6.804 2.808-10.979 5.147-14.328 8.964-3.563 3.744-5.256 8.928-6.048 13.607-.792 4.645-.972 10.549 1.548 13.824 2.448 3.168 5.977 5.508 13.356 5.076 7.42-.68 19.05-4.13 30.86-8.42z"
            ></path>
            <path
              stroke="#000"
              strokeMiterlimit="10"
              strokeWidth="0.036"
              d="M324 221.51l-1.44 3.744 2.521 1.188-.756-2.735 2.195-1.008-2.52-1.18zM333.07 234.9l-1.44 3.744 2.521 1.188-.757-2.736 2.196-1.008-2.52-1.18zM327.78 239.9l-2.16 1.331.864.685 2.231-.072-.93-1.95zM216.47 275.4c-1.332-2.88-1.8-10.728-1.691-11.304.144-.504 1.619 7.452 2.483 8.46.685.828.864-1.584 1.8-2.916.864-1.368 3.42-5.364 3.637-5.04.071.288-2.053 5.221-2.628 6.876-.612 1.584-2.124 2.376-.792 2.521 1.26.071 8.172-2.196 8.243-1.8-.144.323-7.632 2.52-8.279 3.815-.576 1.116 2.916 2.521 4.644 3.24 1.512.612 5.004.792 4.788.972-.36.108-4.536.685-6.552-.072-2.12-.87-4.43-2.13-5.65-4.76zM256.82 264.28l-1.44 3.78 2.521 1.188-.757-2.736 2.196-1.008-2.52-1.22zM234.61 269.24l-2.16 1.332.899.684 2.232-.072-.97-1.94zM240.26 273.6l-2.16 1.332.864.685 2.232-.072-.93-1.95zM245.77 266.62l-2.159 1.332.899.684 2.232-.072-.97-1.94zM251.53 269.32l-2.16 1.332.864.685 2.231-.072-.93-1.95zM225.22 255.67l-2.16 1.332.9.684 2.231-.071-.97-1.94zM230.83 260.03l-2.16 1.331.9.685 2.231-.072-.97-1.94zM237.17 246.2l-2.16 1.332.9.684 2.231-.072-.97-1.94zM267.66 248.94l-3.744 1.513.864 2.664 1.476-2.448 2.232.899-.83-2.62zM297.22 239.65l-1.439 3.744 2.483 1.225-.72-2.772 2.16-1.008-2.48-1.19zM259.49 253.84l-2.16 1.332.864.684 2.268-.071-.97-1.94zM269.75 252.47l-2.16 1.332.9.684 2.231-.071-.97-1.94zM275 244.58l-2.16 1.368.864.684 2.268-.072-.97-1.98zM280.62 248.94l-2.16 1.368.9.685 2.231-.072-.97-1.99zM286.16 241.96l-2.16 1.368.864.684 2.268-.072-.97-1.98zM291.92 244.66l-2.16 1.367.864.685 2.232-.072-.93-1.99zM301.79 226.44l-2.16 1.332.9.721 2.231-.108-.97-1.94zM307.4 230.8l-2.16 1.332.899.684 2.232-.071-.97-1.94zM312.95 223.81l-2.16 1.332.864.721 2.268-.108-.97-1.94zM318.71 226.51l-2.16 1.332.864.685 2.231-.072-.93-1.94zM310.9 239.83l-2.159 1.332.863.72 2.232-.108-.93-1.94zM316.51 244.19l-2.16 1.332.864.685 2.232-.072-.93-1.94zM322.06 237.2l-2.195 1.332.899.72 2.232-.108-.93-1.94zM247.43 250.7l-1.439 3.779 2.52 1.188-.756-2.736 2.196-1.008-2.52-1.22zM236.38 253.04l-2.16 1.332.864.684 2.268-.071-.97-1.94zM242.14 255.74l-2.16 1.332.864.684 2.232-.072-.93-1.94zM262.12 242.5l-3.708 1.548.828 2.628 1.512-2.412 2.231.9-.86-2.67zM285.48 231.95l-3.743 1.548.863 2.628 1.477-2.412 2.231.899-.83-2.67zM283.14 254.77l-2.16 1.368.864.685 2.232-.072-.93-1.98zM270.04 264.06l-2.16 1.332.864.685 2.268-.072-.97-1.95zM304.42 250.13l-2.16 1.332.864.72 2.231-.072-.93-1.98zM295.38 231.95l-2.16 1.367.864.685 2.268-.072-.97-1.98zM271.66 236.48l-2.16 1.368.899.685 2.232-.072-.97-1.99zM333.25 223.16l-2.16 1.332.864.684 2.231-.072-.93-1.94zM342.04 228.92l-2.16 1.332.864.72 2.268-.107-.97-1.94zM344.95 217.91c-5.508.684-7.884 1.26-7.561 1.584.396.359 3.492.468 9.721.468 1.907 2.196 2.699 3.96 2.52 5.147-.216 1.116-4.032 1.765-3.672 2.089.288.323 2.016.359 5.328.107-2.772 4.032-3.924 6.3-3.889 6.948.072.576 1.477-.54 4.356-3.348-.792-3.349-1.692-6.049-2.844-8.244-1.12-2.21-2.49-3.79-3.97-4.76z"
            ></path>
            <path
              stroke="#000"
              strokeMiterlimit="10"
              strokeWidth="0.036"
              d="M271.01 304.38c12.096-4.428 27.685-12.24 41.328-17.46 13.464-5.292 30.276-10.044 39.204-13.68 8.748-3.637 11.16-4.681 13.355-8.28 1.98-3.816 1.729-9.864-.468-13.968-2.124-4.141-5.436-9.576-12.275-10.62-6.984-1.08-15.876.611-29.196 3.96-13.536 3.275-37.872 11.268-50.94 15.372-13.032 3.924-19.8 5.292-26.676 8.279-6.984 2.772-11.232 5.328-14.688 9.181-3.528 3.815-5.437 9.252-6.156 13.968-.792 4.716-1.188 10.512 1.584 14.184 2.628 3.601 7.02 7.345 14.544 7.345 7.65-.25 18.19-4.03 30.4-8.28z"
            ></path>
            <path
              fill="#A16121"
              stroke="#000"
              strokeMiterlimit="10"
              strokeWidth="0.036"
              d="M272.23 302.15c11.7-4.464 25.921-11.951 39.061-17.063 13.032-5.148 30.096-9.648 38.844-13.068 8.641-3.42 10.656-4.14 12.853-7.308 2.088-3.313 1.943-8.388-.036-12.168-2.088-3.853-5.256-9.252-11.988-10.368-6.804-1.044-15.408.612-28.44 3.852-13.247 3.133-36.936 11.053-49.68 15.013-12.672 3.744-19.296 5.184-25.992 8.063-6.804 2.809-10.979 5.148-14.328 8.964-3.42 3.744-5.327 8.929-6.012 13.608-.792 4.644-.972 10.548 1.548 13.824 2.376 3.168 5.94 5.508 13.32 5.076 7.43-.67 19.05-4.13 30.86-8.41z"
            ></path>
            <path
              stroke="#000"
              strokeMiterlimit="10"
              strokeWidth="0.036"
              d="M337.46 247.57l-1.44 3.743 2.521 1.188-.756-2.736 2.195-1.008-2.52-1.18zM346.54 260.96l-1.44 3.744 2.521 1.188-.756-2.735 2.195-1.009-2.52-1.19zM341.24 265.97l-2.16 1.332.864.72 2.268-.107-.97-1.94zM229.93 301.46c-1.26-2.88-1.764-10.729-1.655-11.304.144-.504 1.655 7.452 2.447 8.46.685.828.864-1.584 1.8-2.916.864-1.368 3.421-5.364 3.637-5.04.071.288-2.088 5.22-2.592 6.876-.612 1.584-2.124 2.376-.792 2.52 1.26.072 8.172-2.195 8.243-1.8-.144.324-7.632 2.521-8.279 3.816-.576 1.115 2.952 2.52 4.607 3.239 1.584.612 5.04.792 4.824.973-.324.107-4.644.684-6.588-.072-2.13-.87-4.43-2.13-5.66-4.76zM270.29 290.38l-1.44 3.744 2.521 1.188-.756-2.735 2.195-1.009-2.51-1.19zM248.11 295.31l-2.16 1.332.863.72 2.232-.107-.93-1.94zM253.73 299.66l-2.159 1.332.863.684 2.232-.072-.93-1.94zM259.27 292.68l-2.159 1.332.863.72 2.232-.107-.93-1.94zM265 295.38l-2.16 1.332.864.684 2.268-.071-.97-1.94zM238.72 281.74l-2.16 1.332.864.721 2.232-.108-.93-1.94zM244.33 286.09l-2.16 1.332.864.684 2.231-.071-.93-1.94zM250.67 272.27l-2.16 1.332.864.721 2.231-.108-.93-1.94zM281.12 275l-3.744 1.512.864 2.664 1.476-2.448 2.269.9-.87-2.62zM310.68 265.72l-1.439 3.78 2.52 1.188-.756-2.771 2.196-1.009-2.52-1.19zM272.99 279.9l-2.196 1.332.9.721 2.231-.108-.93-1.94zM283.25 278.53l-2.16 1.332.864.72 2.231-.108-.93-1.94zM288.5 270.68l-2.16 1.332.864.685 2.231-.072-.93-1.95zM294.12 275l-2.16 1.368.864.684 2.231-.072-.93-1.98zM299.63 268.06l-2.16 1.332.9.685 2.23-.08-.97-1.94zM305.39 270.72l-2.16 1.368.864.684 2.232-.071-.93-1.98zM315.29 252.5l-2.16 1.368.864.684 2.231-.072-.93-1.98zM320.9 256.86l-2.16 1.332.864.721 2.231-.108-.93-1.94zM326.45 249.88l-2.16 1.368.864.684 2.231-.072-.93-1.98zM332.17 252.58l-2.16 1.332.864.684 2.268-.072-.97-1.94zM324.36 265.9l-2.16 1.368.863.685 2.232-.072-.93-1.99zM329.98 270.25l-2.16 1.332.864.72 2.269-.107-.97-1.94zM335.52 263.27l-2.159 1.368.863.684 2.232-.071-.93-1.98zM260.89 276.8l-1.439 3.744 2.52 1.188-.75-2.73 2.196-1.008-2.53-1.19zM249.88 279.11l-2.16 1.332.864.721 2.231-.108-.93-1.94zM255.6 281.81l-2.16 1.332.864.685 2.269-.072-.97-1.94zM275.58 268.56l-3.708 1.548.864 2.628 1.476-2.411 2.232.899-.86-2.67zM298.94 258.01l-3.708 1.548.827 2.628 1.513-2.412 2.231.9-.86-2.67zM296.6 280.87l-2.159 1.332.863.684 2.232-.072-.93-1.94zM283.54 290.12l-2.16 1.332.864.684 2.231-.072-.93-1.94zM317.88 276.19l-2.16 1.368.864.685 2.268-.072-.97-1.98zM308.84 258.05l-2.16 1.332.9.684 2.231-.071-.97-1.94zM285.16 262.58l-2.16 1.332.864.684 2.231-.071-.93-1.94zM346.72 249.23l-2.16 1.332.864.721 2.268-.108-.97-1.94zM355.5 254.99l-2.16 1.367.9.685 2.231-.072-.97-1.98zM358.42 244.01c-5.437.72-7.848 1.188-7.524 1.548.396.36 3.528.468 9.685.468 1.907 2.196 2.7 3.96 2.52 5.148-.216 1.116-4.032 1.764-3.672 2.088.324.324 1.98.36 5.364.108-2.736 4.031-3.996 6.3-3.924 6.947.035.576 1.548-.54 4.392-3.348-.792-3.348-1.692-6.048-2.844-8.244-1.27-2.25-2.42-3.72-4-4.73z"
            ></path>
            <path d="M211.25 266c-.937 1.152-1.152 2.448-.648 4.176.469 1.548 2.772 2.844 3.708 5.832.864 2.988 2.664 7.452 1.513 12.276-1.261 4.752-4.824 11.808-8.893 16.308-4.176 4.356-8.82 7.056-15.876 10.044-7.272 2.88-17.532 6.984-26.748 7.596-9.432.505-20.34-1.476-28.44-4.14-7.992-2.771-15.552-7.488-19.332-11.628-3.816-4.248-3.096-9-3.816-12.888-.828-3.889-1.26-7.236-1.152-10.188 2.16-1.224 6.3-2.483 12.708-3.779 6.444-1.404 16.884-3.168 25.344-4.177 8.316-1.008 17.172-.828 24.336-1.691 6.948-1.009 12.744-2.628 17.676-3.889 5.004-1.332 8.532-3.204 11.952-3.815 3.24-.68 5.8-.65 7.67-.04z"></path>
            <path
              fill="#E3E777"
              d="M209.48 266.26c-.108.504-.18 1.368.18 2.592.18 1.188 1.116 3.097 1.439 4.608.433 1.403.648 1.836.504 3.815-.323 1.872-.287 4.356-2.412 7.452-2.304 2.952-5.976 7.452-10.728 10.729-4.752 3.239-10.116 6.588-17.748 8.64-7.92 1.908-20.592 2.628-28.584 2.988-7.992.359-13.284.18-18.936-1.08-5.724-1.548-11.88-4.824-14.868-7.309-3.06-2.52-2.16-4.823-3.132-7.308a159.375 159.375 0 01-2.808-7.524l4.356-1.728c-1.548 2.88-1.152 5.904.792 9.216 1.944 3.276 4.68 8.064 11.124 10.332 6.444 2.16 17.748 2.808 26.964 2.772 9.036-.145 19.62-1.152 27.18-3.313 7.38-2.268 13.068-5.616 17.46-9.504 4.32-4.104 7.488-10.476 8.676-13.824.972-3.275-.288-4.212-1.836-5.58-1.62-1.439-6.3-1.943-7.236-2.628-.9-.756.612-1.296 1.764-1.764 1.116-.576 3.096-.936 4.536-1.224 1.39-.31 2.36-.38 3.33-.38z"
            ></path>
            <path
              fill="#F88011"
              stroke="#000"
              strokeMiterlimit="10"
              strokeWidth="0.036"
              d="M112.21 286.78c.396 1.98.9 3.996 1.224 6.444.324 2.304.108 5.364.864 7.668.54 2.052 1.08 3.636 3.132 5.58 2.088 2.016 5.076 4.212 9.252 6.444 4.104 2.16 9.72 4.752 15.336 6.264 5.472 1.224 12.276 1.872 17.784 1.944 5.508 0 10.224-.469 14.976-1.404 4.608-1.08 8.856-2.808 12.744-4.356 3.96-1.584 7.632-3.096 10.44-4.535 2.628-1.513 3.348-2.628 5.22-4.177 1.728-1.62 3.384-2.771 5.256-5.256 1.908-2.628 4.284-7.092 5.58-9.899 1.009-2.88.973-4.681 1.009-6.805 0-2.231-.433-4.319-.864-6.12-.576-1.8-1.332-3.42-2.269-4.716 1.009 2.772.828 5.544-.684 8.748-1.584 3.132-5.292 6.948-8.208 9.9a62.44 62.44 0 01-9.576 6.983c-3.384 1.944-6.12 3.78-10.44 5.076-4.5 1.225-9.684 1.8-15.696 2.412-6.048.54-14.472.792-19.872.9-5.508-.036-8.388-.145-12.384-.9-3.996-.972-8.136-2.304-11.304-3.996-3.276-1.728-6.264-4.031-7.848-5.939-1.62-2.017-1.188-3.816-1.764-5.544-.61-1.68-1.3-3.3-1.91-4.7z"
            ></path>
            <path d="M150.52 310.61c-.288.396-.072 1.009.468 1.404.504.396 1.188.36 1.476-.036s.072-1.008-.468-1.403c-.55-.36-1.2-.36-1.48.04z"></path>
            <path
              fill="#F7E42C"
              d="M150.7 310.68c-.216.324-.072.828.36 1.152.432.288.972.288 1.188-.036.252-.324.072-.828-.36-1.116-.44-.31-.98-.31-1.19.01z"
            ></path>
            <path d="M207.94 290.09c-.576-.252-2.124.612-2.16.936-.252.252 1.008.181 1.296.612.18.432.144 1.548.468 1.8.36.072 1.512-.54 1.656-1.008-.09-.65-.7-2.13-1.27-2.34z"></path>
            <path
              fill="#F7E42C"
              d="M207.94 290.27c-.504-.144-1.692.433-1.764.756-.144.036.72.252 1.044.504.144.288.072 1.225.36 1.404.216-.072 1.26-.288 1.332-.792.03-.47-.61-1.69-.97-1.87z"
            ></path>
            <path d="M140.22 314.96c-.252.396-.072 1.008.468 1.404s1.188.359 1.476-.036c.288-.396.072-1.008-.468-1.404-.51-.35-1.19-.35-1.48.04z"></path>
            <path
              fill="#F7E42C"
              d="M140.4 315.04c-.216.323-.072.828.36 1.151.432.288.972.288 1.224-.036.216-.323.036-.827-.396-1.115-.42-.33-.93-.33-1.18 0z"
            ></path>
            <path d="M120.89 305.21c-.288.396-.072 1.008.468 1.404.504.396 1.188.359 1.476-.036.252-.396.072-1.009-.468-1.404-.55-.36-1.19-.36-1.48.04z"></path>
            <path
              fill="#F7E42C"
              d="M121.07 305.28c-.252.323-.072.827.36 1.151.432.288.972.288 1.188-.036.216-.323.072-.828-.36-1.115-.44-.32-.98-.32-1.19 0z"
            ></path>
            <path d="M174.56 315.14c-.288.396-.072 1.008.468 1.404s1.188.36 1.476-.036c.288-.396.072-1.008-.468-1.404-.54-.35-1.19-.35-1.48.04z"></path>
            <path
              fill="#F7E42C"
              d="M174.74 315.22c-.216.324-.072.828.36 1.152.432.288.972.288 1.188-.036.252-.324.072-.828-.36-1.116-.43-.32-.97-.32-1.19.01z"
            ></path>
            <path d="M196.88 308.16c-.288.396-.072 1.044.432 1.403.54.396 1.224.396 1.476 0 .288-.396.108-1.044-.432-1.403-.54-.4-1.19-.4-1.48 0z"></path>
            <path
              fill="#F7E42C"
              d="M197.06 308.23c-.252.324-.072.828.36 1.152s.972.288 1.188-.036c.216-.288.072-.828-.36-1.116-.43-.31-.97-.28-1.19.01z"
            ></path>
            <path d="M184.64 312.55c.072-.288-1.368-2.16-1.944-2.304-.54-.145-1.584.972-1.188 1.403.25.33 2.92 1.08 3.13.9z"></path>
            <path
              fill="#F7E42C"
              d="M184.28 312.34c.036-.216-1.188-1.8-1.584-1.836-.504-.216-1.188.864-.936 1.151.22.36 2.31.72 2.52.69z"
            ></path>
            <path d="M162.61 316.22c-.18-.324-2.628-.216-3.024.181-.468.323-.18 1.764.432 1.8.5-.18 2.52-1.62 2.59-1.98z"></path>
            <path
              fill="#F7E42C"
              d="M162.25 316.4c-.072-.288-2.124-.145-2.412.144-.288.18-.18 1.439.324 1.439.36-.1 2.13-1.32 2.09-1.58z"
            ></path>
            <path d="M131.29 310.75c0 .252 2.484.396 3.024.144.432-.323.216-1.908-.216-1.836-.53.01-2.91 1.27-2.8 1.7z"></path>
            <path
              fill="#FDD025"
              d="M131.69 310.61c-.036.217 2.016.252 2.412.108.288-.324.18-1.404-.18-1.44-.5.03-2.27.93-2.23 1.33z"
            ></path>
            <path d="M187.31 303.73c-.504.324-.216 2.088.036 2.376.18.181.54-.936 1.08-.972.468-.108 1.44.432 1.8.252.252-.324.144-1.656-.324-1.908-.62-.25-2.13-.22-2.6.25z"></path>
            <path
              fill="#F7E42C"
              d="M187.45 303.84c-.36.252-.144 1.728.072 1.908.108.144.432-.721.828-.792.288-.181 1.224.396 1.44.216.18-.252.144-1.368-.252-1.548-.54-.22-1.69-.15-2.09.21z"
            ></path>
            <path d="M164.41 311.62c.324-.433.396-2.196.216-2.376-.252-.288-.684.684-1.152.827-.576.036-1.548-.756-1.8-.432-.324.252-.432 1.548.108 1.944.53.25 2.01.4 2.62.04z"></path>
            <path
              fill="#F7E42C"
              d="M164.27 311.47c.324-.359.252-1.764.18-1.872-.108-.216-.648.612-.936.685-.54-.036-1.152-.576-1.44-.36-.324.108-.288 1.224.108 1.548.36.25 1.66.25 2.09 0z"
            ></path>
            <path d="M132.01 313.38c-.36.576.36 1.979.648 2.268.108.108.36-1.044.756-1.224.36-.324 1.62.108 1.836-.216.108-.433-.288-1.62-.792-1.764-.62-.19-2.13.32-2.46.93z"></path>
            <path
              fill="#FDD025"
              d="M132.19 313.42c-.288.432.252 1.548.504 1.8.144.144.216-.864.612-.936.36-.145 1.224-.072 1.476-.181.036-.288-.18-1.403-.648-1.403-.57-.11-1.69.18-1.94.72z"
            ></path>
            <path d="M173.3 309.64c-.18.252-.036.648.288.9.36.252.756.252.972 0 .18-.252.036-.685-.324-.937-.32-.22-.76-.22-.94.04z"></path>
            <path
              fill="#F7E42C"
              d="M173.41 309.67c-.144.216-.036.54.252.756.252.18.612.18.756-.036.144-.18.036-.54-.252-.72-.25-.21-.61-.18-.76 0z"
            ></path>
            <path d="M165.28 317.81c-.18.252-.036.685.288.937.36.216.792.216.972-.036s.036-.648-.288-.9c-.36-.25-.79-.25-.97 0z"></path>
            <path
              fill="#F7E42C"
              d="M165.38 317.88c-.144.18-.036.54.252.72.288.216.612.216.756 0s.036-.54-.216-.756c-.28-.18-.61-.18-.79.04z"
            ></path>
            <path
              fill="#F1C810"
              stroke="#000"
              strokeMiterlimit="10"
              strokeWidth="0.036"
              d="M117.47 282.31c3.708-1.403 8.388-2.52 14.472-3.491 6.048-1.009 14.58-1.872 21.42-2.448 6.696-.576 11.448-.145 18.828-1.225 7.308-1.188 15.624-3.096 25.092-5.724 1.62.684 3.132 1.44 5.076 2.412 1.8.899 5.436.972 5.904 3.132.324 2.052-1.908 6.48-3.492 9.252-1.548 2.736-2.448 4.428-5.904 7.164-3.636 2.664-9.324 6.588-15.516 8.712-6.3 1.944-14.472 2.664-21.6 3.132-7.272.288-15.228-.18-21.096-.72-5.796-.504-10.332-1.08-13.608-2.412-3.348-1.512-4.896-4.392-6.444-6.3-1.656-1.908-2.808-3.168-3.312-5.04-.54-1.89-.43-4.09.18-6.43z"
            ></path>
            <path d="M136.51 281.52c-.756 1.044-4.32 9.108-5.148 12.097-.864 2.808-.648 6.084.108 5.111.756-1.044 2.952-8.567 3.96-11.34.83-2.99 1.66-6.84 1.08-5.87zM151.42 282.38c-.396-.108-1.08 3.6-1.08 6.66 0 2.988.864 10.728 1.188 11.016.252 0 .324-6.947.36-10.008-.01-3.02-.29-7.52-.47-7.67zM164.45 292.03c-.144.216.576 6.624 1.044 7.703.324.9 1.08-.323 1.008-1.584-.29-1.37-1.94-6.37-2.05-6.12zM168.01 277.96c-.216.684 1.656 10.08 3.096 13.607 1.368 3.456 4.896 7.74 5.184 7.164.18-.756-2.808-7.848-4.104-11.268-1.48-3.67-4.03-10.08-4.18-9.5zM191.05 275.58c.72.107 4.392 1.836 6.444 3.672 1.944 1.692 6.048 6.768 5.364 6.768-.756-.18-7.776-5.508-9.684-7.235-2.08-1.83-2.84-3.27-2.12-3.2zM197.14 297.94c-.144.252 1.368 2.017 2.016 2.232.432.107 1.512-1.152 1.152-1.44-.37-.4-2.99-1.08-3.17-.79z"></path>
            <path
              fill="#F7E42C"
              d="M197.5 298.12c-.144.144 1.044 1.619 1.62 1.8.396.036 1.116-.9.9-1.152-.33-.47-2.42-.83-2.52-.65z"
            ></path>
            <path d="M178.02 278.89c-.252.108 2.7 4.752 4.824 6.588 2.052 1.765 7.056 4.141 7.38 4.068.252-.252-4.068-3.276-6.012-5.04-2.09-1.84-6.05-5.83-6.19-5.62zM193.86 302.83c-.18.252-.036.647.288.899.36.252.792.252.972 0s.036-.684-.288-.899c-.36-.25-.79-.25-.97 0z"></path>
            <path
              fill="#F7E42C"
              d="M193.97 302.87c-.144.216-.036.54.252.756.288.18.612.18.756-.036.144-.18.036-.504-.216-.72-.29-.18-.61-.18-.79 0z"
            ></path>
          </g>
        </g>
      </switch>
    </svg>
